<?xml version="1.0" encoding="UTF-8" standalone="no"?>
<!DOCTYPE svg PUBLIC "-//W3C//DTD SVG 1.1//EN" "http://www.w3.org/Graphics/SVG/1.1/DTD/svg11.dtd">
<svg xmlns:xl="http://www.w3.org/1999/xlink" version="1.1" xmlns:dc="http://purl.org/dc/elements/1.1/" xmlns="http://www.w3.org/2000/svg" viewBox="-54 -153 1025 1025" width="1025" height="1025">
  <defs/>
  <g id="版面___2" stroke-opacity="1" fill="none" fill-opacity="1" stroke="none" stroke-dasharray="none">
    <title>版面 2</title>
    <g id="版面___2_图层_1">
      <title>图层 1</title>
      <g id="Graphic_7"/>
      <g id="Group_2">
        <g id="Graphic_6">
          <path d="M 420.69685 35.54624 C 286.52512 44.214333 168.40403 100.268 98.05037 188.58623 C 59.60575 236.7423 37.78843 294.81852 37.01954 350.9685 C 36.923427 362.33334 37.01954 362.7186 41.248447 375.5281 C 60.18242 431.6781 86.51699 465.0021 118.42602 473.2849 C 134.18832 477.33003 161.29177 473.7665 218.38203 459.89754 C 250.86774 452.09625 261.2478 450.0737 277.2023 448.7253 C 311.3219 445.9323 339.4826 453.9262 378.6 477.7153 C 420.5046 503.238 473.5582 521.3447 528.82234 529.2423 C 545.44964 531.55377 584.75926 532.13164 599.4643 530.2054 C 632.14226 525.87135 654.63236 515.9512 671.6441 498.13346 C 679.333 490.13955 683.2736 484.45713 687.4064 475.4038 C 692.78864 463.6537 694.2303 457.77867 706.14815 398.16145 C 722.8716 315.1404 729.2149 290.09923 739.3066 268.91056 C 744.6889 257.4494 750.3595 249.4555 758.3367 241.94316 C 769.0051 232.023 776.7901 229.13364 802.2597 225.85903 C 813.0242 224.51066 821.9626 221.91023 825.7109 219.02087 C 827.537 217.6725 827.3448 217.19094 821.2898 208.2339 C 798.6075 174.0431 765.5451 141.4896 727.2927 115.2927 C 663.9552 72.04854 587.3543 45.37008 502.39166 36.990922 C 484.3227 35.16099 438.5736 34.390494 420.69685 35.54624 Z M 416.8524 41.710217 C 416.8524 41.90284 417.9096 49.60781 419.25517 58.757466 C 421.9463 77.153085 421.9463 76.96046 415.69905 76.96046 C 411.47014 76.96046 411.9507 78.30883 409.16346 58.275905 C 408.0101 50.37831 407.43345 43.63646 407.914 43.1549 C 408.5868 42.577026 410.70125 42.095466 415.69905 41.42128 C 416.2757 41.42128 416.8524 41.517593 416.8524 41.710217 Z M 524.01676 65.499316 C 531.129 70.8928 536.9918 75.804715 536.9918 76.38259 C 536.9918 77.05677 535.8385 78.98302 534.3968 80.71663 L 531.7057 83.79862 L 518.7306 74.0711 C 511.6184 68.67762 505.3711 63.95832 504.89056 63.47676 C 503.92945 62.51364 508.5428 55.77179 510.1767 55.77179 C 510.65726 55.77179 516.9045 60.20215 524.01676 65.499316 Z M 469.71374 65.403004 C 473.7504 68.77393 474.231 67.52187 461.35203 84.47281 L 452.31755 96.3192 L 448.4731 93.23721 L 444.72473 90.25154 L 447.31975 86.68799 C 460.48703 68.96655 465.3887 62.51364 465.8693 62.51364 C 466.1576 62.51364 467.8876 63.86201 469.71374 65.403004 Z M 359.08934 92.94828 C 359.4738 93.33352 354.37988 101.0385 353.7071 101.0385 C 352.9382 101.0385 326.50753 80.71663 326.50753 80.13876 C 326.50753 79.75351 327.66087 77.82727 329.00643 75.90103 L 331.50533 72.24117 L 345.15317 82.45025 C 352.55376 88.03636 358.8971 92.85196 359.08934 92.94828 Z M 313.0519 80.04245 C 313.0519 80.71663 314.10914 88.42161 315.4547 97.18601 C 316.70415 105.8541 317.66526 113.07751 317.56915 113.17383 C 317.47304 113.27014 315.3586 113.65539 312.8597 114.04064 C 308.63078 114.71482 308.34244 114.61851 307.8619 112.49964 C 307.1891 109.51396 303.44076 82.93181 303.44076 81.29451 C 303.44076 79.17564 313.0519 77.92358 313.0519 80.04245 Z M 400.994 90.92572 C 407.33734 95.5487 412.9118 99.69013 413.39237 100.17169 C 413.87293 100.55694 412.8157 102.6758 411.1818 104.79467 L 408.10623 108.74347 L 394.4584 98.43807 C 386.9617 92.85196 380.61833 88.13267 380.4261 87.94005 C 380.2339 87.74742 381.48333 85.91749 383.21334 83.70231 C 385.90447 80.23507 386.48113 79.94614 387.9228 81.10188 C 388.7878 81.77607 394.6506 86.20643 400.994 90.92572 Z M 602.7321 91.11835 C 604.0777 98.24544 607.2494 122.5161 606.7688 122.90135 C 605.9038 123.86447 597.5421 124.44235 597.5421 123.57554 C 597.5421 123.09398 596.4849 115.58163 595.1393 106.81722 C 593.88986 98.05282 593.121 90.63678 593.5054 90.25154 C 594.0821 89.67366 596.0043 89.28841 601.0982 88.61423 C 601.6749 88.61423 602.4438 89.67366 602.7321 91.11835 Z M 246.92716 97.76388 C 249.04162 99.20857 250.29107 100.74956 249.90662 101.42374 C 248.0805 104.31311 230.10764 128.0059 229.62709 128.0059 C 227.9932 128.0059 221.84205 122.80504 222.41872 121.84192 C 224.24484 118.95255 242.2177 95.25977 242.69826 95.25977 C 242.9866 95.25977 244.90882 96.41551 246.92716 97.76388 Z M 564.1914 100.46062 C 565.63306 101.52006 566.7864 102.77211 566.7864 103.15736 C 566.7864 103.63892 562.26916 110.09184 556.6947 117.50787 L 546.50687 130.99157 L 542.7585 128.29483 C 540.64406 126.85015 539.1063 125.11653 539.3946 124.44235 C 540.54795 121.16773 559.4819 97.28232 560.44304 97.8602 C 561.0197 98.24544 562.6536 99.40119 564.1914 100.46062 Z M 506.2361 117.31525 C 507.38946 125.40547 507.96613 132.43625 507.4856 132.8215 C 506.7167 133.49569 498.5472 134.84406 498.5472 134.26619 C 498.5472 134.07356 497.49 126.4649 496.1444 117.31525 C 494.79885 108.1656 493.93385 100.46062 494.2222 100.268 C 494.5105 99.97906 496.52886 99.4975 498.83554 99.11225 C 503.83334 98.43807 503.545 97.66757 506.2361 117.31525 Z M 470.57874 122.80504 C 470.77096 122.99766 469.71374 124.73128 468.27206 126.75384 C 466.7343 128.7764 465.3887 130.51001 465.2926 130.70264 C 465.1965 130.89526 458.757 126.27228 451.0681 120.49355 L 437.1319 109.99553 L 440.01527 106.04673 L 442.8986 102.00162 L 456.54645 112.30702 C 464.04316 117.89312 470.3865 122.70873 470.57874 122.80504 Z M 660.1107 112.30702 C 662.12906 113.84801 663.8591 115.19638 663.8591 115.48532 C 663.8591 115.77425 659.1496 122.13086 653.3829 129.6432 L 643.00286 143.31953 L 639.0623 140.43016 L 635.1217 137.5408 L 645.40565 123.67185 C 651.0762 116.06319 655.8818 109.8029 655.9779 109.70659 C 656.17014 109.70659 657.9963 110.86233 660.1107 112.30702 Z M 373.50608 120.20461 L 376.87 122.99766 L 366.77827 136.48136 C 361.2999 143.99371 356.3021 150.06138 355.82155 150.15769 C 355.2449 150.15769 353.32265 148.90563 351.49653 147.36464 L 348.22874 144.6679 L 358.22434 131.08788 C 363.7988 123.57554 368.7966 117.50787 369.27717 117.50787 C 369.85384 117.50787 371.77607 118.66362 373.50608 120.20461 Z M 330.92866 124.8276 C 332.75478 126.17597 334.10034 127.90958 333.812 128.58377 C 333.52367 129.25795 328.9103 135.71087 323.52807 142.83797 L 313.8208 155.93642 L 310.07245 152.95074 C 307.958 151.31343 306.3241 149.77244 306.3241 149.57982 C 306.3241 148.80932 326.50753 122.22717 327.0842 122.22717 C 327.37253 122.22717 329.10254 123.38291 330.92866 124.8276 Z M 201.94696 128.68008 C 203.00419 133.97725 206.4642 159.98153 206.17587 160.27046 C 205.98364 160.36678 203.8692 160.84834 201.3703 161.13727 L 196.85305 161.81146 L 196.27638 158.63316 C 195.50748 154.01017 191.95136 128.96902 191.95136 128.0059 C 191.95136 127.13909 194.64248 126.4649 198.8714 126.17597 C 200.88973 126.07965 201.4664 126.56121 201.94696 128.68008 Z M 270.76283 155.45486 C 272.01228 164.70082 272.87728 172.4058 272.58895 172.69473 C 272.39672 172.88735 270.28227 173.2726 267.87948 173.65785 L 263.45835 174.33204 L 261.05556 156.99585 L 258.65277 139.65966 L 260.67112 139.27442 C 261.72834 139.0818 263.9389 138.79286 265.5728 138.69654 L 268.45615 138.60023 Z M 588.79595 150.15769 C 593.121 161.4262 594.65875 169.90168 594.65875 183.19275 C 594.65875 201.97362 590.7182 217.96144 581.29925 236.54968 C 565.44084 268.3327 541.1246 290.7734 501.9111 310.03584 C 477.40266 322.07486 452.41366 329.87614 424.06075 334.3065 C 407.914 336.8106 373.21774 337.77374 357.936 336.04012 C 329.87143 333.05444 299.50018 324.6753 285.27567 316.0072 C 240.00713 288.46192 213.38423 252.34487 212.80756 217.5762 C 212.61534 207.84866 213.67257 198.89163 214.92202 199.75844 C 215.40258 199.95107 215.97925 202.74412 216.3637 205.92242 C 219.05481 229.42258 234.33655 255.52317 254.51998 271.12574 C 259.99833 275.36347 275.28007 284.9947 276.52952 284.9947 C 276.91397 284.9947 276.3373 282.49057 275.28007 279.40858 C 271.05116 266.888 272.39672 246.75877 278.54786 229.80783 C 285.564 210.25646 298.25073 195.5207 320.74083 180.97757 C 328.8142 175.77672 347.8443 166.43444 358.22434 162.67827 C 404.83844 145.5347 462.31315 145.63102 502.7761 162.77458 C 517.19284 168.93856 532.5707 181.65176 540.54795 194.17234 C 546.8913 204.1888 550.928 216.32413 553.13856 232.023 L 553.81134 237.32018 L 559.0975 229.13364 C 575.052 204.1888 584.0865 177.31771 584.3748 153.33599 C 584.4709 147.36464 584.8554 142.45272 585.2398 142.45272 C 585.52815 142.45272 587.16205 145.91995 588.79595 150.15769 Z M 549.2941 155.26223 C 556.2141 160.5594 561.9808 165.08607 561.9808 165.375 C 561.9808 165.66394 560.8275 167.59019 559.4819 169.61274 L 556.8869 173.2726 L 553.90745 171.05742 C 552.27356 169.80537 546.2185 165.18238 540.3557 160.84834 C 534.58903 156.51429 529.68734 152.5655 529.4951 152.08393 C 528.91845 150.54294 534.2046 144.37896 535.45404 145.05314 C 536.0307 145.4384 542.27796 150.06138 549.2941 155.26223 Z M 701.5348 163.35245 C 704.1298 181.84438 704.4181 180.59233 697.4981 181.1702 L 694.1342 181.45913 L 692.01975 167.01231 C 690.7703 159.0184 689.9053 151.21712 690.0975 149.67613 C 690.28974 147.0757 690.6742 146.69045 694.1342 146.3052 C 696.2487 146.01627 698.267 146.01627 698.5553 146.3052 C 698.9398 146.59414 700.28535 154.29911 701.5348 163.35245 Z M 756.6067 164.70082 C 763.719 170.0943 769.5818 175.00622 769.5818 175.5841 C 769.5818 176.25828 768.4284 178.18452 766.9868 179.91814 L 764.2956 183.00013 L 751.3206 173.2726 C 744.2083 167.87912 737.9611 163.15983 737.4805 162.67827 C 736.6155 161.81146 741.325 154.9733 742.76665 154.9733 C 743.2472 154.9733 749.4945 159.40365 756.6067 164.70082 Z M 144.8567 179.24396 C 144.8567 179.91814 145.91393 187.62311 147.25949 196.38752 C 148.50894 205.0556 149.47005 212.37533 149.27783 212.47164 C 149.18172 212.66427 146.97115 212.8569 144.37614 212.9532 L 139.66667 213.24214 L 137.55222 198.79532 C 134.76499 179.91814 134.76499 179.24396 137.45611 178.7624 C 141.87724 177.89559 144.8567 178.0882 144.8567 179.24396 Z M 249.42606 191.4756 C 255.28887 195.90596 260.19056 199.75844 260.19056 200.04738 C 260.19056 200.43263 258.9411 202.35887 257.40332 204.2851 L 254.7122 207.94497 L 241.06436 197.73589 C 233.66377 192.05347 227.51263 187.04524 227.51263 186.56368 C 227.51263 186.08212 228.66597 184.15587 230.01153 182.32594 L 232.60654 179.05133 L 235.586 181.2665 C 237.2199 182.51857 243.46715 187.14155 249.42606 191.4756 Z M 644.63676 186.46737 C 644.63676 186.94893 645.694 194.36496 647.03955 203.12937 C 648.289 211.89377 649.0579 219.3098 648.67344 219.59874 C 648.289 219.984 646.17454 220.46555 643.964 220.8508 C 639.2545 221.52499 639.9273 223.35492 636.9478 201.781 C 635.2178 190.03091 635.1217 187.33417 636.17894 186.66 C 637.7167 185.60056 644.63676 185.50424 644.63676 186.46737 Z M 729.1188 194.17234 C 731.041 195.5207 732.77105 196.86908 732.9633 196.9654 C 733.7322 197.54326 713.3565 224.22173 712.1071 224.31804 C 710.5693 224.31804 705.187 220.36924 705.187 219.2135 C 705.187 218.25037 724.6016 191.66822 725.27435 191.5719 C 725.4666 191.5719 727.1966 192.72765 729.1188 194.17234 Z M 113.81267 209.6786 L 116.88824 212.27902 L 106.89264 225.6664 C 101.31817 233.08244 96.6087 239.24642 96.41648 239.53536 C 96.12814 239.72798 94.20591 238.66855 92.09146 237.12755 L 88.15088 234.2382 L 98.33871 220.65818 C 104.00929 213.14583 109.00709 206.98185 109.67987 206.98185 C 110.25654 206.98185 112.08266 208.2339 113.81267 209.6786 Z M 177.15018 228.7484 C 178.9763 230.19308 180.41797 231.73407 180.41797 232.31194 C 180.41797 233.37138 161.00344 259.85722 160.23455 259.85722 C 159.94621 259.95353 158.1201 258.50885 156.19786 256.77523 L 152.54562 253.69324 L 162.82956 239.9206 C 168.50014 232.40826 173.30572 226.24428 173.49794 226.24428 C 173.69016 226.24428 175.32406 227.40003 177.15018 228.7484 Z M 657.7079 241.3653 C 659.53405 242.71366 660.8796 244.44727 660.5913 245.12146 C 660.30294 245.79564 655.6896 252.24856 650.30734 259.37566 L 640.6001 272.4741 L 636.8517 269.48843 C 634.7373 267.85113 633.1034 266.31013 633.1034 266.1175 C 633.1034 265.347 653.2868 238.76486 653.8635 238.76486 C 654.1518 238.76486 655.8818 239.9206 657.7079 241.3653 Z M 697.88256 261.9761 C 705.8598 267.94744 710.6654 272.18517 710.28095 272.85936 C 707.9743 276.71184 705.5715 279.21596 704.51425 278.8307 C 703.9376 278.54177 697.4981 273.9188 690.38586 268.5253 L 677.3147 258.79778 L 680.0058 255.0416 C 681.4475 253.01906 683.0814 251.47806 683.75416 251.767 C 684.4269 251.95962 690.7703 256.5826 697.88256 261.9761 Z M 201.56251 252.6338 C 201.56251 252.82643 202.61974 260.4351 203.9653 269.58474 C 205.31086 278.7344 206.3681 286.24674 206.3681 286.43937 C 206.3681 287.01724 197.62194 288.173 197.14138 287.5951 C 196.66082 287.11355 191.95136 257.83466 191.95136 254.9453 C 191.95136 253.88586 192.91247 253.21168 195.12304 252.92274 C 200.31306 252.24856 201.56251 252.24856 201.56251 252.6338 Z M 109.77598 283.26107 C 111.12154 291.83285 112.17877 299.63413 112.17877 300.50094 C 112.17877 301.6567 111.02543 302.23456 107.66153 302.6198 C 105.06652 302.90874 102.95206 303.00506 102.85595 302.90874 C 102.27928 302.33087 97.76204 269.1995 98.2426 268.81425 C 98.81927 268.23637 106.70041 266.888 107.18097 267.27325 C 107.37319 267.36956 108.52653 274.59298 109.77598 283.26107 Z M 607.4416 297.0337 C 608.78715 305.99073 609.65215 313.5994 609.4599 313.792 C 608.4988 314.85145 600.2332 315.42932 599.9449 314.4662 C 598.9838 311.2879 595.52376 282.87582 595.9082 281.72007 C 596.4849 280.3717 603.1166 279.11965 604.4621 280.17908 C 604.7505 280.468 606.19214 287.98036 607.4416 297.0337 Z M 168.01958 299.05626 L 181.4752 309.16903 L 178.39963 313.02152 C 176.4774 315.52564 175.03572 316.58507 174.26683 316.0072 C 173.69016 315.52564 167.82736 311.09528 161.19566 306.18336 C 154.56396 301.27144 148.79727 296.9374 148.31671 296.45583 C 147.45171 295.68533 152.16118 288.84717 153.69896 288.84717 C 154.17952 288.84717 160.619 293.47015 168.01958 299.05626 Z M 667.223 297.7079 C 667.9919 302.23456 671.548 327.37203 671.548 328.23884 C 671.548 329.20196 662.9941 330.64664 662.2252 329.97246 C 661.8407 329.4909 657.2274 299.53782 657.13126 296.84108 C 657.13126 295.78165 659.53405 295.10746 664.53185 294.7222 C 666.26186 294.6259 666.7424 295.3001 667.223 297.7079 Z M 75.75249 325.6384 C 83.05697 331.1282 89.01589 336.04012 89.112 336.5217 C 89.112 337.09955 87.86255 339.0258 86.42088 340.85573 L 83.72975 344.03403 L 70.08191 333.72863 C 62.58521 328.14253 56.43407 323.2306 56.43407 322.94167 C 56.43407 322.17117 61.33576 315.81457 62.00854 315.81457 C 62.29688 315.81457 68.448016 320.24493 75.75249 325.6384 Z M 545.64186 320.34124 C 545.64186 320.8228 546.6991 328.23884 548.04465 337.00324 C 549.2941 345.76765 550.063 353.1837 549.67855 353.4726 C 549.2941 353.85787 547.17965 354.33943 544.9691 354.72468 C 540.2596 355.39886 541.0285 357.3251 537.8568 335.7512 C 536.0307 323.61585 535.9346 321.30436 537.08793 320.53387 C 538.7218 319.47443 545.64186 319.37812 545.64186 320.34124 Z M 236.16267 341.5299 C 237.41212 350.67957 238.27712 358.28823 238.0849 358.48085 C 237.79657 358.7698 235.586 359.15504 233.1832 359.5403 L 228.76208 360.21447 L 226.64763 344.5156 C 225.4943 335.8475 224.24484 328.0462 224.05262 327.1794 C 223.57206 325.4458 225.87873 324.57898 230.87654 324.8679 L 233.75988 324.96422 Z M 150.23894 328.0462 C 152.06506 329.3946 153.41063 331.1282 153.1223 331.8024 C 152.83396 332.47657 148.2206 338.9295 142.83836 346.0566 L 133.13109 359.15504 L 129.38274 356.16936 C 127.17217 354.43574 125.92272 352.70212 126.30717 352.12425 C 127.84495 349.52382 146.10615 325.4458 146.4906 325.4458 C 146.68282 325.4458 148.41283 326.60153 150.23894 328.0462 Z M 512.0028 335.9438 L 515.2706 338.64055 L 505.275 352.22056 C 499.70054 359.7329 494.79885 365.80057 494.2222 365.80057 C 493.7416 365.80057 491.8194 364.64483 489.9933 363.10383 L 486.7255 360.4071 L 497.0094 346.8271 C 502.68 339.31473 507.5817 333.15076 507.96613 333.15076 C 508.3506 333.15076 510.1767 334.4028 512.0028 335.9438 Z M 289.21625 343.35984 C 291.61903 344.99715 292.58015 346.3455 292.0996 347.0197 C 291.61903 347.59758 287.1979 353.4726 282.2962 360.11816 C 277.39453 366.7637 272.9734 372.54242 272.58895 373.024 C 271.91617 373.7945 264.03502 369.2678 264.03502 368.11206 C 264.03502 367.34157 284.31456 340.85573 284.89123 340.85573 C 285.27567 340.85573 287.1979 342.01147 289.21625 343.35984 Z M 662.9941 355.7841 L 676.4497 365.9932 L 673.75856 369.74937 C 672.3169 371.86824 670.5869 373.40923 669.9141 373.1203 C 666.6463 371.96455 642.81064 352.99106 643.3873 352.02794 C 645.2134 349.04226 648.0007 345.67134 648.67344 345.67134 C 649.154 345.67134 655.5935 350.198 662.9941 355.7841 Z M 370.14217 356.93986 C 371.1994 362.23702 374.6594 388.2413 374.3711 388.53024 C 374.17886 388.62655 372.0644 389.0118 369.5655 389.30074 C 365.04826 389.8786 365.04826 389.8786 364.4716 386.7966 C 363.7027 382.26995 360.14657 357.2288 360.14657 356.26567 C 360.14657 355.30255 362.45325 354.62836 366.58604 354.43574 C 369.18106 354.33943 369.6616 354.72468 370.14217 356.93986 Z M 601.29045 360.79234 L 604.366 363.4891 L 594.65875 376.4912 C 589.2765 383.6183 584.56704 389.8786 584.0865 390.36017 C 583.02925 391.4196 576.2053 386.12243 576.782 384.58144 C 577.7431 382.07732 596.1004 358.1919 597.06154 358.1919 C 597.6382 358.1919 599.56044 359.34766 601.29045 360.79234 Z M 88.05477 362.7186 C 89.977 364.06695 91.70701 365.41532 91.89923 365.51164 C 92.18757 365.80057 74.50304 390.16754 71.90803 393.0569 C 71.13914 393.9237 64.122996 389.1081 64.122996 387.75974 C 64.122996 386.7966 83.44142 360.21447 84.21031 360.11816 C 84.40253 360.11816 86.13254 361.2739 88.05477 362.7186 Z M 181.5713 378.12853 C 182.91687 387.5671 183.87799 395.4647 183.68576 395.65734 C 183.49354 395.84996 181.37909 396.3315 178.9763 396.71677 C 175.03572 397.29464 174.55517 397.19833 174.17072 395.3684 C 172.82516 389.39705 169.74959 364.5485 170.23015 363.4891 C 170.51848 362.7186 172.3446 361.9481 174.36294 361.75546 C 176.38129 361.56284 178.30352 361.3702 178.59185 361.2739 C 178.88019 361.1776 180.22575 368.78625 181.5713 378.12853 Z M 471.1554 362.23702 C 471.34763 362.9112 472.5971 370.6162 473.84653 379.3806 C 475.57654 390.93804 475.8649 395.4647 475.096 395.94627 C 474.5193 396.3315 472.30875 396.71677 470.0982 396.71677 L 466.2537 396.71677 L 464.04316 380.2474 C 462.6976 370.6162 462.1209 363.4891 462.6015 363.0075 C 463.08204 362.52596 464.81205 362.0444 466.34983 361.75546 C 467.98373 361.56284 469.6176 361.2739 470.00207 361.1776 C 470.3865 361.1776 470.9632 361.65915 471.1554 362.23702 Z M 119.8677 369.1715 C 119.8677 369.36412 120.92492 376.9728 122.27048 386.12243 C 123.61605 395.2721 124.67327 402.78444 124.67327 402.97706 C 124.67327 403.55493 115.92712 404.7107 115.44656 404.1328 C 114.966 403.74756 110.25654 373.50554 110.25654 371.00143 C 110.25654 370.0383 112.27488 369.46043 118.2338 368.97887 C 119.0988 368.88256 119.8677 368.97887 119.8677 369.1715 Z M 425.118 382.94413 L 438.86193 393.24953 L 436.2669 396.9094 C 434.82524 398.83564 433.28746 400.56926 432.8069 400.56926 C 432.1341 400.56926 409.644 384.2925 405.4151 380.72895 C 404.93455 380.3437 410.1246 372.63873 410.89347 372.63873 C 411.1818 372.63873 417.52517 377.2617 425.118 382.94413 Z M 649.8268 388.72286 C 651.17234 395.84996 654.344 420.1206 653.8635 420.50587 C 653.5751 420.7948 651.4607 421.27637 649.0579 421.469 C 644.829 421.95055 644.7329 421.95055 644.2523 418.77225 C 643.3873 414.05296 639.8312 389.1081 639.8312 388.0487 C 639.8312 387.2782 641.9456 386.7966 647.7123 386.31506 C 648.76955 386.21875 649.4423 387.08556 649.8268 388.72286 Z M 300.4613 408.1779 C 302.47964 422.3358 302.57575 424.93623 301.4224 425.7067 C 299.5963 426.86247 292.8685 426.86247 292.8685 425.7067 C 292.8685 425.12885 292.00348 418.96487 291.04237 411.9341 C 287.9668 391.03435 287.8707 392.47904 292.38793 391.80485 C 294.50238 391.5159 296.71295 391.3233 297.1935 391.4196 C 297.77017 391.5159 299.21185 399.02826 300.4613 408.1779 Z M 235.00933 410.4894 C 241.92936 415.78657 247.69606 420.31324 247.69606 420.6022 C 247.69606 422.2395 242.50603 428.40346 241.54492 427.8256 C 238.66157 425.99566 215.01813 407.9853 215.01813 407.50373 C 215.01813 405.8664 220.20815 399.70245 221.16927 400.2803 C 221.74594 400.66557 227.9932 405.28855 235.00933 410.4894 Z M 540.8363 407.50373 C 540.8363 408.1779 541.8935 415.69026 543.14296 424.16573 C 544.3924 432.6412 545.1613 439.8646 544.77686 440.24986 C 544.4885 440.5388 542.27796 441.02036 539.8752 441.213 L 535.64626 441.5019 L 533.5318 427.0551 C 530.8407 408.9484 530.7446 407.60004 532.95514 407.02217 C 536.51126 406.05905 540.8363 406.348 540.8363 407.50373 Z M 378.6961 410.5857 C 380.13777 411.64515 381.0989 413.08983 380.90666 413.764 C 380.61833 414.3419 376.00498 420.7948 370.62273 427.9219 L 360.91546 441.02036 L 357.1671 438.3236 C 355.14877 436.87893 353.41876 435.33794 353.41876 434.9527 C 353.41876 434.56744 357.936 428.11453 363.51047 420.6985 C 370.14217 412.0304 374.08274 407.50373 374.85164 407.9853 C 375.5244 408.37054 377.1583 409.5263 378.6961 410.5857 Z M 115.63879 430.1371 L 129.38274 440.4425 L 126.78773 444.10234 C 125.34605 446.0286 123.80827 447.7622 123.42382 447.7622 C 123.03938 447.7622 116.5999 443.23553 109.19931 437.64943 C 100.54927 431.0039 96.03203 427.0551 96.51259 426.2846 C 97.85815 423.8768 101.02983 419.8317 101.41428 419.8317 C 101.70261 419.8317 108.04597 424.45467 115.63879 430.1371 Z M 180.03353 434.9527 L 193.77748 445.2581 L 190.79802 449.3032 L 187.91467 453.4446 L 174.26683 443.23553 C 166.86624 437.64943 160.52288 432.8338 160.33066 432.7375 C 159.8501 432.35226 165.04012 424.6473 165.80902 424.6473 C 166.09735 424.6473 172.44071 429.27027 180.03353 434.9527 Z M 630.22 434.76007 C 637.6206 440.34617 643.67564 445.1618 643.67564 445.547 C 643.67564 446.51015 638.8701 452.5778 638.00506 452.5778 C 636.9478 452.5778 611.5744 433.4117 611.18994 432.35226 C 610.9016 431.48545 615.6111 424.6473 616.4761 424.6473 C 616.6683 424.6473 622.91555 429.17396 630.22 434.76007 Z M 487.8788 434.8564 C 488.16715 435.1453 470.48263 459.5123 467.8876 462.40165 C 467.1187 463.26846 460.1026 458.45285 460.1026 457.2008 C 460.1026 456.71923 464.71594 450.2663 470.2904 442.8503 L 480.3821 429.3666 L 483.93825 431.967 C 485.8605 433.4117 487.6866 434.76007 487.8788 434.8564 Z M 416.56405 460.76434 C 419.5435 481.27883 419.6396 480.1231 414.3535 480.9899 C 411.9507 481.27883 409.83624 481.47145 409.644 481.27883 C 409.4518 481.0862 408.39457 474.44067 407.33734 466.5431 C 406.184 458.54917 405.03066 450.9405 404.74233 449.4958 C 404.26177 447.28064 404.5501 446.8954 406.9529 446.51015 C 414.5457 445.3544 414.16126 444.77653 416.56405 460.76434 Z M 602.3477 475.21117 C 603.5971 484.45713 604.4621 492.2584 604.1738 492.45104 C 603.9816 492.64366 601.771 493.1252 599.3682 493.5105 L 594.9471 494.18466 L 592.8326 478.38947 C 591.6793 469.8177 590.42984 461.9201 590.2376 461.0533 C 589.75706 459.416 591.4871 458.7418 597.15765 458.45285 L 600.041 458.35654 Z M 561.9808 470.20293 C 561.9808 470.5882 557.4636 477.0411 551.8891 484.45713 C 545.2574 493.1252 541.31684 497.6519 540.54795 497.17033 C 536.6074 494.85884 534.1085 492.45104 534.4929 491.3916 C 534.78126 490.81373 539.3946 484.3608 544.77686 477.2337 L 554.4841 464.13527 L 558.2325 466.832 C 560.2508 468.2767 561.9808 469.8177 561.9808 470.20293 Z M 655.40125 469.8177 L 659.0535 472.5144 L 648.8657 486.19075 C 643.1951 493.6068 638.1973 499.77076 637.5245 499.77076 C 636.9478 499.77076 635.1217 498.5187 633.3917 497.074 L 630.3161 494.4736 L 640.6001 480.70096 C 646.17454 473.1886 651.0762 467.02463 651.3646 467.02463 C 651.6529 467.02463 653.479 468.2767 655.40125 469.8177 Z M 503.7372 480.2194 C 505.56335 489.36905 508.15836 511.71347 507.4856 512.29134 C 506.7167 512.9655 498.5472 514.3139 498.5472 513.736 C 498.5472 513.5434 497.49 505.93474 496.1444 496.7851 C 494.79885 487.63543 494.02996 479.83415 494.4144 479.4489 C 494.89496 479.06365 496.7211 478.5821 498.5472 478.29315 C 500.3733 478.10053 502.19944 477.8116 502.5839 477.8116 C 502.8722 477.7153 503.4489 478.7747 503.7372 480.2194 Z" fill="#523820"/>
        </g>
        <g id="Graphic_5">
          <path d="M 413.4885 171.05742 C 379.465 175.10253 352.36153 184.54112 329.19865 200.43263 C 308.9191 214.30157 294.31016 232.50457 288.44735 250.9965 C 286.14068 258.31622 285.66012 273.53354 287.48624 282.97213 C 288.35124 287.4025 289.02402 291.06235 289.02402 291.25498 C 289.02402 291.83285 308.9191 300.59725 316.12748 303.19768 L 324.5853 306.08705 L 331.02477 301.17513 C 357.936 280.75695 392.34394 267.27325 428.86633 262.74658 C 441.36083 261.2056 467.6954 261.2056 479.3249 262.74658 C 490.66605 264.28758 502.7761 266.888 512.38727 269.97 L 519.78785 272.28148 L 526.7079 266.69538 C 530.55235 263.6134 536.2229 258.50885 539.2985 255.33055 L 544.9691 249.4555 L 544.4885 241.4616 C 542.18185 206.98185 507.1011 179.34027 456.162 171.82792 C 446.9353 170.57586 421.8502 169.99799 413.4885 171.05742 Z" fill="#f0b95f"/>
        </g>
        <g id="Graphic_4">
          <path d="M 432.23023 275.84503 C 411.47014 278.25284 392.34394 282.58688 374.5633 289.0398 C 360.72324 294.04803 335.542 307.3391 336.59924 309.07272 C 337.8487 311.09528 358.22434 312.44365 386.57725 312.44365 C 411.37403 312.44365 417.8135 312.1547 425.02187 310.71003 C 447.6081 306.18336 470.0982 299.3452 487.30215 291.83285 C 497.29775 287.4025 509.6 280.17908 509.6 278.7344 C 509.6 275.4598 453.95144 273.34092 432.23023 275.84503 Z" fill="#f0b95f"/>
        </g>
        <g id="Graphic_3">
          <path d="M 837.821 243.58047 C 830.5165 248.39607 815.0425 252.44118 798.3191 254.0785 C 786.113 255.23423 780.6346 257.73835 774.099 264.76914 C 760.0667 279.98645 753.1467 303.294 733.0594 402.97706 C 726.716 434.76007 720.1804 464.90577 718.64265 469.914 C 712.77985 488.9838 703.64925 504.2011 689.8092 518.1664 C 668.2802 539.9329 639.4467 552.5498 599.4643 557.65436 C 586.0087 559.4843 550.8319 559.19535 534.3968 557.1728 C 472.21264 549.75676 411.66236 529.72384 364.08714 500.8302 C 346.01817 489.9469 338.8098 486.28706 326.60364 482.0493 C 311.89857 476.8485 301.03797 475.3075 284.31456 475.98166 C 267.87948 476.55954 257.59555 478.38947 225.5904 486.19075 C 187.62634 495.533 167.82736 499.3855 145.33726 501.7933 C 117.4649 504.6827 93.72535 497.074 71.33136 478.0042 L 64.699665 472.4181 L 69.31302 481.0862 C 92.76424 524.7156 133.2272 567.7671 180.89853 599.64645 C 264.99614 655.89274 374.85164 683.8233 485.0916 676.9851 C 677.2186 665.0424 833.6882 552.83875 863.1944 405.7701 C 866.8467 387.2782 868 375.23916 868 355.30255 C 867.8078 318.415 860.3111 283.93525 844.9332 250.41863 C 841.3771 242.61734 840.5121 241.84685 837.821 243.58047 Z" fill="#f0b95f"/>
        </g>
      </g>
    </g>
    <g id="版面___2_sug">
      <title>sug</title>
      <g id="Graphic_232">
        <path d="M 408.61845 42.093076 C 407.61845 42.293076 406.81845 42.693076 406.81845 42.893076 C 406.81845 43.593076 410.71845 70.69308 411.31845 73.99308 C 411.81845 76.99308 411.91845 77.09308 415.91845 76.39308 C 418.11845 75.99308 420.21845 75.39308 420.51845 74.99308 C 421.11845 74.39308 420.21845 65.793076 417.61845 48.593076 L 416.61845 41.393076 L 413.41845 41.493076 C 411.71845 41.593076 409.51845 41.793076 408.61845 42.093076 Z" fill="#80ff80"/>
      </g>
      <g id="Graphic_231">
        <title>贝塞尔曲面</title>
        <path d="M 506.51845 58.393076 L 503.71845 62.293076 L 517.71845 72.79308 L 531.71845 83.39308 L 534.71845 79.49308 L 537.81845 75.59308 L 524.51845 65.693076 C 517.31845 60.293076 510.81845 55.493076 510.31845 55.193076 C 509.71845 54.893076 508.01845 56.293076 506.51845 58.393076 Z" fill="#80ff80"/>
      </g>
      <g id="Graphic_230">
        <path d="M 454.61845 75.99308 L 444.41845 89.69308 L 447.81845 92.49308 C 449.71845 94.09308 451.61845 95.29308 452.01845 95.19308 C 452.41845 94.99308 457.31845 88.79308 462.81845 81.39308 L 472.91845 67.893076 L 469.71845 65.093076 C 467.91845 63.593076 466.01845 62.393076 465.61845 62.393076 C 465.21845 62.393076 460.21845 68.493076 454.61845 75.99308 Z" fill="#ff80ff"/>
      </g>
      <g id="Graphic_229">
        <path d="M 328.11845 75.69308 C 326.81845 77.49308 325.81845 79.29308 325.81845 79.59308 C 325.81845 79.89308 331.91845 84.79308 339.51845 90.39308 L 353.11845 100.69308 L 355.01845 98.29308 C 359.41845 92.69308 359.71845 93.29308 345.31845 82.49308 C 337.91845 76.89308 331.51845 72.39308 331.11845 72.39308 C 330.61845 72.39308 329.31845 73.89308 328.11845 75.69308 Z" fill="#ffffc0"/>
      </g>
      <g id="Graphic_228">
        <path d="M 305.11845 79.09308 C 302.31845 79.59308 302.31845 78.69308 304.81845 95.89308 C 307.71845 115.89308 307.01845 114.29308 312.01845 113.69308 C 314.41845 113.39308 316.51845 112.89308 316.71845 112.69308 C 317.01845 112.49308 316.11845 104.69308 314.91845 95.39308 L 312.51845 78.39308 L 309.91845 78.49308 C 308.51845 78.59308 306.31845 78.89308 305.11845 79.09308 Z" fill="#ff80ff"/>
      </g>
      <g id="Graphic_227">
        <path d="M 382.61845 83.29308 L 379.81845 87.19308 L 393.31845 97.29308 C 400.71845 102.79308 407.11845 107.39308 407.61845 107.39308 C 408.61845 107.39308 412.81845 101.89308 412.81845 100.59308 C 412.81845 99.79308 386.41845 79.39308 385.61845 79.39308 C 385.41845 79.39308 384.11845 81.19308 382.61845 83.29308 Z" fill="#ff80ff"/>
      </g>
      <g id="Graphic_226">
        <path d="M 594.61845 89.09308 C 592.41845 89.59308 592.41845 88.29308 594.81845 105.59308 C 597.71845 125.89308 597.01845 124.09308 602.01845 123.49308 C 607.51845 122.69308 607.51845 122.39308 604.91845 104.39308 C 603.71845 96.59308 602.81845 89.79308 602.81845 89.29308 C 602.81845 88.39308 597.81845 88.19308 594.61845 89.09308 Z" fill="#ff80ff"/>
      </g>
      <g id="Graphic_225">
        <path d="M 231.81845 107.69308 C 226.31845 115.09308 221.81845 121.49308 221.81845 121.99308 C 221.81845 123.49308 228.81845 127.79308 229.71845 126.79308 C 230.21845 126.29308 234.91845 120.09308 240.31845 112.99308 L 250.11845 100.19308 L 247.71845 98.19308 C 242.01845 93.69308 242.61845 93.29308 231.81845 107.69308 Z" fill="#ffffc0"/>
      </g>
      <g id="Graphic_224">
        <path d="M 549.31845 109.99308 C 543.81845 117.29308 539.31845 123.79308 539.31845 124.29308 C 539.31845 125.79308 546.11845 130.59308 546.91845 129.69308 C 549.21845 126.99308 566.01845 104.19308 566.41845 103.09308 C 566.81845 101.99308 564.01845 99.29308 560.31845 97.19308 C 559.81845 96.89308 554.81845 102.59308 549.31845 109.99308 Z" fill="#80ff80"/>
      </g>
      <g id="Graphic_223">
        <path d="M 494.91845 99.29308 C 493.81845 99.99308 493.91845 102.79308 495.91845 116.49308 L 498.31845 132.89308 L 501.81845 133.19308 C 508.21845 133.59308 508.31845 133.49308 505.71845 114.99308 L 503.41845 98.39308 L 499.81845 98.39308 C 497.91845 98.39308 495.71845 98.79308 494.91845 99.29308 Z" fill="#ffffc0"/>
      </g>
      <g id="Graphic_222">
        <path d="M 439.31845 105.99308 C 437.81845 107.89308 436.81845 109.69308 436.91845 109.79308 C 437.11845 109.99308 442.91845 114.29308 449.81845 119.39308 C 456.71845 124.49308 462.81845 129.09308 463.41845 129.59308 C 464.21845 130.19308 465.61845 129.09308 467.71845 126.49308 L 470.81845 122.59308 L 457.31845 112.49308 C 449.91845 106.99308 443.41845 102.39308 442.91845 102.39308 C 442.41845 102.39308 440.81845 103.99308 439.31845 105.99308 Z" fill="#ff80ff"/>
      </g>
      <g id="Graphic_221">
        <path d="M 645.61845 122.99308 L 635.41845 136.69308 L 638.81845 139.49308 C 640.71845 141.09308 642.61845 142.29308 643.01845 142.19308 C 643.41845 141.99308 648.21845 135.79308 653.81845 128.39308 L 663.91845 114.89308 L 660.61845 112.19308 C 658.81845 110.69308 657.01845 109.39308 656.61845 109.39308 C 656.21845 109.39308 651.21845 115.49308 645.61845 122.99308 Z" fill="#ffffc0"/>
      </g>
      <g id="Graphic_220">
        <path d="M 357.91845 130.49308 C 352.21845 138.19308 347.71845 144.59308 347.91845 144.79308 C 348.11845 144.89308 349.91845 146.19308 351.91845 147.69308 L 355.41845 150.29308 L 364.91845 137.69308 C 377.11845 121.39308 376.51845 122.49308 373.71845 120.19308 C 368.51845 116.09308 368.91845 115.79308 357.91845 130.49308 Z" fill="#80ff80"/>
      </g>
      <g id="Graphic_219">
        <path d="M 316.41845 134.49308 C 311.11845 141.69308 306.51845 148.09308 306.31845 148.69308 C 306.01845 149.39308 307.51845 151.09308 309.51845 152.49308 L 313.21845 155.19308 L 323.71845 141.19308 L 334.21845 127.19308 L 331.71845 125.29308 C 326.31845 120.99308 326.81845 120.69308 316.41845 134.49308 Z" fill="#ff80ff"/>
      </g>
      <g id="Graphic_218">
        <path d="M 193.51845 126.09308 C 191.31845 126.49308 190.91845 126.89308 191.31845 128.69308 C 191.81845 131.29308 195.81845 159.09308 195.81845 160.49308 C 195.81845 161.49308 203.81845 160.59308 205.01845 159.49308 C 205.61845 158.99308 203.41845 140.99308 201.31845 128.59308 C 200.71845 125.19308 200.31845 125.09308 193.51845 126.09308 Z" fill="#80ff80"/>
      </g>
      <g id="Graphic_217">
        <path d="M 262.31845 138.29308 C 258.41845 138.89308 258.31845 138.99308 258.61845 142.39308 C 259.21845 148.79308 262.81845 172.79308 263.31845 173.19308 C 263.51845 173.39308 265.81845 173.29308 268.31845 172.99308 C 272.81845 172.29308 272.91845 172.19308 272.31845 169.09308 C 271.71845 165.49308 267.81845 138.49308 267.81845 137.79308 C 267.81845 137.59308 267.51845 137.49308 267.11845 137.49308 C 266.61845 137.59308 264.51845 137.99308 262.31845 138.29308 Z" fill="#ffffc0"/>
      </g>
      <g id="Graphic_216">
        <path d="M 531.31845 147.89308 C 529.81845 149.79308 528.71845 151.69308 529.01845 151.89308 C 529.31845 152.19308 535.51845 156.99308 542.91845 162.49308 L 556.31845 172.49308 L 559.11845 169.29308 C 560.61845 167.49308 561.81845 165.49308 561.81845 164.89308 C 561.71845 163.89308 538.01845 145.79308 535.41845 144.79308 C 534.61845 144.49308 532.81845 145.79308 531.31845 147.89308 Z" fill="#80ff80"/>
      </g>
      <g id="Graphic_215">
        <path d="M 691.61845 146.09308 C 689.31845 146.69308 689.41845 148.19308 692.11845 166.39308 L 694.31845 180.89308 L 698.31845 180.59308 C 700.51845 180.39308 702.71845 179.89308 703.11845 179.49308 C 703.61845 178.99308 702.91845 171.29308 701.61845 162.29308 L 699.31845 145.89308 L 696.31845 145.69308 C 694.61845 145.69308 692.51845 145.79308 691.61845 146.09308 Z" fill="#ffffc0"/>
      </g>
      <g id="Graphic_214">
        <path d="M 739.31845 157.99308 C 737.81845 159.89308 736.81845 161.69308 736.91845 161.79308 C 737.11845 161.99308 742.91845 166.29308 749.81845 171.39308 C 756.71845 176.49308 762.81845 181.09308 763.41845 181.59308 C 764.21845 182.19308 765.6185 181.09308 767.7185 178.49308 L 770.8185 174.59308 L 757.31845 164.49308 C 749.91845 158.99308 743.41845 154.39308 742.91845 154.39308 C 742.41845 154.39308 740.81845 155.99308 739.31845 157.99308 Z" fill="#ff80ff"/>
      </g>
      <g id="Graphic_213">
        <path d="M 136.51845 178.09308 C 134.31845 178.49308 133.91845 178.89308 134.31845 180.69308 C 134.81845 183.29308 138.81845 211.09308 138.81845 212.49308 C 138.81845 213.49308 146.81845 212.59308 148.01845 211.49308 C 148.61845 210.99308 146.41845 192.99308 144.31845 180.59308 C 143.71845 177.19308 143.31845 177.09308 136.51845 178.09308 Z" fill="#80ff80"/>
      </g>
      <g id="Graphic_212">
        <path d="M 229.31845 181.89308 C 227.81845 183.79308 226.81845 185.79308 227.01845 186.29308 C 227.61845 188.19308 253.01845 206.49308 254.31845 206.09308 C 255.01845 205.79308 256.51845 204.19308 257.71845 202.49308 L 259.91845 199.49308 L 245.91845 188.99308 L 231.91845 178.39308 Z" fill="#ffffc0"/>
      </g>
      <g id="Graphic_211">
        <path d="M 639.81845 185.09308 C 637.91845 185.39308 636.01845 185.79308 635.61845 186.19308 C 634.91845 186.89308 639.21845 219.19308 640.21845 220.09308 C 640.51845 220.39308 642.81845 220.29308 645.31845 219.99308 C 649.31845 219.39308 649.81845 218.99308 649.31845 217.09308 C 648.81845 214.49308 644.81845 186.69308 644.81845 185.29308 C 644.81845 184.79308 644.51845 184.49308 644.11845 184.59308 C 643.61845 184.59308 641.71845 184.89308 639.81845 185.09308 Z" fill="#80ff80"/>
      </g>
      <g id="Graphic_210">
        <path d="M 714.81845 205.09308 L 704.51845 218.69308 L 706.91845 220.59308 C 712.51845 224.99308 711.91845 225.29308 722.71845 210.89308 C 728.31845 203.49308 732.81845 197.09308 732.81845 196.69308 C 732.81845 195.89308 726.71845 191.39308 725.61845 191.39308 C 725.31845 191.39308 720.41845 197.49308 714.81845 205.09308 Z" fill="#ffffc0"/>
      </g>
      <g id="Graphic_209">
        <path d="M 98.01845 218.99308 C 92.91845 225.89308 88.51845 232.09308 88.21845 232.79308 C 87.71845 234.09308 94.51845 239.99308 95.41845 239.19308 C 95.61845 238.89308 100.31845 232.69308 105.91845 225.29308 L 115.91845 211.89308 L 112.81845 209.09308 C 111.21845 207.59308 109.21845 206.39308 108.51845 206.39308 C 107.91845 206.49308 103.11845 212.09308 98.01845 218.99308 Z" fill="#ff80ff"/>
      </g>
      <g id="Graphic_208">
        <path d="M 161.71845 239.89308 C 156.11845 247.39308 151.71845 253.59308 151.91845 253.79308 C 152.11845 253.89308 153.91845 255.29308 155.91845 256.69308 L 159.51845 259.39308 L 169.71845 245.89308 C 175.21845 238.49308 179.81845 232.09308 179.81845 231.59308 C 179.81845 230.59308 174.21845 226.39308 172.91845 226.39308 C 172.31845 226.39308 167.31845 232.49308 161.71845 239.89308 Z" fill="#ff80ff"/>
      </g>
      <g id="Graphic_207">
        <path d="M 643.01845 252.09308 L 632.71845 265.79308 L 635.01845 267.59308 C 640.61845 272.09308 640.01845 272.39308 650.81845 258.09308 C 656.31845 250.69308 660.81845 244.29308 660.81845 243.79308 C 660.81845 242.99308 654.81845 238.39308 653.71845 238.39308 C 653.51845 238.39308 648.61845 244.59308 643.01845 252.09308 Z" fill="#ffffc0"/>
      </g>
      <g id="Graphic_206">
        <path d="M 680.41845 253.79308 C 679.01845 255.69308 677.81845 257.59308 677.81845 258.09308 C 677.91845 258.99308 702.01845 277.19308 704.21845 277.99308 C 705.91845 278.69308 711.51845 271.59308 710.21845 270.49308 C 708.91845 269.29308 685.51845 251.89308 684.21845 251.09308 C 683.51845 250.69308 681.91845 251.89308 680.41845 253.79308 Z" fill="#ff80ff"/>
      </g>
      <g id="Graphic_205">
        <path d="M 195.31845 252.29308 C 191.41845 252.89308 191.31845 252.99308 191.61845 256.39308 C 192.21845 262.79308 195.81845 286.79308 196.31845 287.19308 C 196.51845 287.39308 198.81845 287.29308 201.31845 286.99308 C 205.81845 286.29308 205.91845 286.19308 205.31845 283.09308 C 204.71845 279.49308 200.81845 252.49308 200.81845 251.79308 C 200.81845 251.59308 200.51845 251.49308 200.11845 251.49308 C 199.61845 251.59308 197.51845 251.99308 195.31845 252.29308 Z" fill="#ffffc0"/>
      </g>
      <g id="Graphic_204">
        <path d="M 100.61845 267.09308 C 98.51845 267.29308 96.81845 267.79308 96.81845 268.19308 C 96.91845 270.89308 101.71845 301.69308 102.11845 302.09308 C 102.41845 302.29308 104.71845 302.19308 107.21845 301.89308 C 111.21845 301.29308 111.71845 300.89308 111.31845 298.99308 C 110.81845 296.49308 106.81845 268.69308 106.81845 267.29308 C 106.81845 266.79308 106.21845 266.49308 105.61845 266.59308 C 104.91845 266.69308 102.61845 266.89308 100.61845 267.09308 Z" fill="#ff80ff"/>
      </g>
      <g id="Graphic_203">
        <path d="M 596.51845 280.09308 C 595.31845 280.39308 594.91845 281.19308 595.31845 282.69308 C 595.71845 284.69308 599.81845 312.99308 599.81845 313.99308 C 599.81845 314.69308 607.31845 314.39308 608.51845 313.59308 C 609.41845 312.99308 609.31845 309.69308 607.81845 299.39308 C 604.71845 277.69308 605.21845 279.39308 601.51845 279.49308 C 599.71845 279.59308 597.51845 279.79308 596.51845 280.09308 Z" fill="#ffffc0"/>
      </g>
      <g id="Graphic_202">
        <path d="M 150.71845 290.09308 C 146.31845 295.39308 145.71845 294.49308 160.71845 305.79308 L 174.61845 316.29308 L 177.31845 312.79308 C 178.71845 310.89308 179.81845 308.89308 179.61845 308.39308 C 179.21845 307.29308 154.11845 288.39308 153.01845 288.39308 C 152.51845 288.39308 151.51845 289.19308 150.71845 290.09308 Z" fill="#80ffff"/>
      </g>
      <g id="Graphic_201">
        <path d="M 663.81845 294.09308 C 662.41845 294.29308 660.41845 294.69308 659.21845 294.89308 L 657.11845 295.39308 L 659.41845 311.09308 C 660.71845 319.79308 661.81845 327.49308 661.81845 328.29308 C 661.81845 329.29308 662.91845 329.49308 666.31845 329.09308 C 668.91845 328.89308 671.11845 328.39308 671.41845 328.19308 C 671.81845 327.69308 667.21845 294.39308 666.61845 293.99308 C 666.41845 293.89308 665.21845 293.99308 663.81845 294.09308 Z" fill="#80ffff"/>
      </g>
      <g id="Graphic_200">
        <path d="M 58.018454 318.39308 C 56.818454 319.99308 55.818454 321.79308 55.818454 322.29308 C 55.818454 323.39308 82.61845 343.99308 83.21845 343.29308 C 83.31845 343.09308 84.71845 341.29308 86.11845 339.29308 L 88.81845 335.69308 L 75.31845 325.49308 C 67.918454 319.99308 61.518454 315.39308 61.018454 315.39308 C 60.518454 315.39308 59.218454 316.69308 58.018454 318.39308 Z" fill="#ffffc0"/>
      </g>
      <g id="Graphic_199">
        <path d="M 539.61845 319.09308 C 537.51845 319.29308 535.81845 320.09308 535.81845 320.69308 C 535.91845 323.99308 540.51845 353.49308 541.11845 353.99308 C 541.41845 354.29308 543.51845 354.29308 545.71845 353.89308 C 550.61845 353.09308 550.51845 354.09308 547.61845 333.59308 C 546.31845 324.29308 545.01845 318.49308 544.41845 318.59308 C 543.81845 318.69308 541.61845 318.89308 539.61845 319.09308 Z" fill="#ff80ff"/>
      </g>
      <g id="Graphic_198">
        <path d="M 227.11845 324.09308 C 223.11845 324.59308 223.11845 324.09308 226.01845 344.19308 L 228.21845 359.59308 L 232.71845 358.89308 C 235.21845 358.49308 237.41845 358.09308 237.61845 357.89308 C 237.91845 357.59308 234.21845 329.89308 233.31845 325.59308 C 233.01845 324.39308 232.21845 323.49308 231.51845 323.59308 C 230.91845 323.59308 228.81845 323.89308 227.11845 324.09308 Z" fill="#80ff80"/>
      </g>
      <g id="Graphic_197">
        <path d="M 134.61845 338.99308 L 124.41845 352.59308 L 126.91845 354.49308 C 132.31845 358.79308 131.81845 359.09308 142.21845 345.29308 C 147.51845 338.09308 152.11845 331.69308 152.41845 331.09308 C 152.81845 329.99308 147.21845 325.39308 145.51845 325.39308 C 145.11845 325.39308 140.21845 331.49308 134.61845 338.99308 Z" fill="#ffffc0"/>
      </g>
      <g id="Graphic_196">
        <path d="M 496.81845 346.09308 L 486.51845 359.79308 L 489.91845 362.59308 C 491.71845 364.09308 493.61845 365.39308 494.01845 365.39308 C 494.41845 365.39308 499.41845 359.29308 505.01845 351.79308 L 515.21845 338.19308 L 511.81845 335.29308 C 509.91845 333.69308 508.01845 332.39308 507.71845 332.39308 C 507.31845 332.39308 502.41845 338.59308 496.81845 346.09308 Z" fill="#ffffc0"/>
      </g>
      <g id="Graphic_195">
        <path d="M 274.51845 352.49308 C 269.11845 359.69308 264.51845 366.09308 264.21845 366.79308 C 263.91845 367.49308 265.41845 369.19308 267.41845 370.69308 L 271.11845 373.29308 L 281.61845 359.29308 C 287.41845 351.59308 291.91845 345.19308 291.71845 344.99308 C 291.51845 344.89308 289.71845 343.59308 287.81845 342.09308 L 284.21845 339.49308 Z" fill="#80ffff"/>
      </g>
      <g id="Graphic_194">
        <path d="M 645.41845 348.59308 C 642.71845 352.39308 642.61845 352.59308 644.41845 353.89308 C 645.51845 354.59308 651.71845 359.29308 658.31845 364.29308 L 670.31845 373.29308 L 673.01845 370.09308 C 674.51845 368.29308 675.81845 366.39308 675.81845 365.89308 C 675.81845 365.09308 654.01845 347.99308 649.41845 345.19308 C 648.81845 344.89308 647.01845 346.29308 645.41845 348.59308 Z" fill="#ff80ff"/>
      </g>
      <g id="Graphic_193">
        <path d="M 362.61845 354.09308 C 360.81845 354.39308 359.81845 355.09308 359.81845 356.19308 C 359.81845 358.99308 364.41845 388.39308 364.91845 388.79308 C 365.11845 389.09308 367.21845 388.99308 369.61845 388.69308 C 374.71845 387.99308 374.51845 389.09308 371.61845 368.59308 C 369.31845 351.89308 369.91845 352.99308 362.61845 354.09308 Z" fill="#ffffc0"/>
      </g>
      <g id="Graphic_192">
        <path d="M 585.81845 371.09308 L 575.51845 384.69308 L 577.91845 386.59308 C 583.61845 391.09308 583.01845 391.39308 593.81845 377.09308 C 599.31845 369.69308 603.81845 363.29308 603.81845 362.79308 C 603.81845 361.89308 597.81845 357.39308 596.61845 357.39308 C 596.31845 357.39308 591.41845 363.49308 585.81845 371.09308 Z" fill="#80ff80"/>
      </g>
      <g id="Graphic_191">
        <path d="M 73.418454 372.49308 C 68.118454 379.69308 63.518454 386.09308 63.218454 386.69308 C 62.818454 387.79308 68.418454 392.39308 70.118454 392.39308 C 70.518454 392.39308 75.41845 386.29308 81.01845 378.79308 L 91.21845 365.19308 L 88.71845 363.29308 C 83.31845 358.99308 83.81845 358.69308 73.418454 372.49308 Z" fill="#ffffc0"/>
      </g>
      <g id="Graphic_190">
        <path d="M 173.81845 361.19308 C 171.91845 361.39308 170.01845 361.89308 169.51845 362.29308 C 169.11845 362.69308 169.71845 369.49308 170.81845 377.49308 C 173.81845 398.29308 173.21845 396.69308 177.91845 396.09308 C 180.21845 395.79308 182.21845 395.29308 182.61845 394.89308 C 183.41845 394.19308 179.01845 362.09308 178.01845 361.39308 C 177.61845 361.09308 175.71845 360.99308 173.81845 361.19308 Z" fill="#80ffff"/>
      </g>
      <g id="Graphic_189">
        <path d="M 465.61845 361.09308 C 461.01845 361.59308 461.11845 360.79308 464.01845 381.29308 L 466.21845 396.59308 L 470.71845 395.99308 C 473.11845 395.69308 475.31845 395.19308 475.51845 394.99308 C 475.91845 394.59308 472.31845 367.49308 471.31845 362.59308 C 471.01845 361.39308 470.41845 360.49308 470.01845 360.59308 C 469.61845 360.69308 467.61845 360.89308 465.61845 361.09308 Z" fill="#ff80ff"/>
      </g>
      <g id="Graphic_188">
        <path d="M 111.21845 369.09308 L 109.21845 369.49308 L 111.51845 385.69308 C 112.81845 394.59308 114.01845 402.29308 114.11845 402.89308 C 114.51845 403.99308 121.91845 403.69308 123.11845 402.49308 C 123.71845 401.89308 120.81845 377.79308 119.31845 370.59308 C 118.81845 368.39308 116.71845 367.99308 111.21845 369.09308 Z" fill="#ffffc0"/>
      </g>
      <g id="Graphic_187">
        <path d="M 407.31845 375.89308 C 405.81845 377.79308 404.71845 379.69308 405.01845 379.89308 C 405.31845 380.19308 411.51845 384.99308 418.91845 390.49308 L 432.31845 400.49308 L 435.11845 397.29308 C 436.61845 395.49308 437.81845 393.49308 437.81845 392.89308 C 437.71845 391.89308 414.01845 373.79308 411.41845 372.79308 C 410.61845 372.49308 408.81845 373.79308 407.31845 375.89308 Z" fill="#80ff80"/>
      </g>
      <g id="Graphic_186">
        <path d="M 643.61845 386.09308 C 641.51845 386.29308 639.81845 386.79308 639.81845 387.19308 C 639.81845 389.29308 644.81845 420.6931 645.21845 421.0931 C 645.41845 421.2931 647.71845 421.1931 650.21845 420.8931 C 654.21845 420.2931 654.71845 419.8931 654.31845 417.9931 C 653.81845 415.4931 649.81845 387.69308 649.81845 386.29308 C 649.81845 385.79308 649.21845 385.49308 648.61845 385.59308 C 647.91845 385.69308 645.61845 385.89308 643.61845 386.09308 Z" fill="#ff80ff"/>
      </g>
      <g id="Graphic_185">
        <path d="M 291.11845 391.09308 C 289.31845 391.29308 287.81845 392.09308 287.81845 392.69308 C 287.91845 395.79308 292.51845 425.4931 293.01845 425.8931 C 293.31845 426.1931 295.41845 426.1931 297.71845 425.7931 C 302.61845 424.9931 302.51845 426.0931 299.61845 405.5931 C 297.91845 393.09308 297.21845 390.39308 295.91845 390.59308 C 295.01845 390.59308 292.81845 390.89308 291.11845 391.09308 Z" fill="#ffffc0"/>
      </g>
      <g id="Graphic_184">
        <path d="M 217.21845 402.09308 C 216.11845 403.69308 214.91845 405.3931 214.51845 405.9931 C 213.91845 407.0931 239.61845 427.3931 241.51845 427.3931 C 242.41845 427.3931 246.81845 421.1931 246.81845 420.0931 C 246.81845 419.3931 220.51845 399.39308 219.71845 399.39308 C 219.41845 399.39308 218.31845 400.59308 217.21845 402.09308 Z" fill="#ffffc0"/>
      </g>
      <g id="Graphic_183">
        <path d="M 533.61845 406.0931 C 532.01845 406.2931 530.81845 407.0931 530.81845 407.6931 C 530.91845 410.3931 535.51845 440.3931 535.91845 440.7931 C 536.11845 441.0931 538.21845 440.9931 540.61845 440.6931 C 545.71845 439.9931 545.51845 441.0931 542.61845 420.5931 C 540.31845 403.89308 540.91845 404.9931 533.61845 406.0931 Z" fill="#ff80ff"/>
      </g>
      <g id="Graphic_182">
        <path d="M 363.41845 419.7931 C 357.91845 427.0931 353.31845 433.3931 353.11845 433.8931 C 353.01845 434.4931 354.61845 436.0931 356.61845 437.5931 L 360.51845 440.2931 L 369.91845 427.6931 C 382.11845 411.3931 381.51845 412.4931 378.71845 410.1931 C 373.51845 406.0931 373.91845 405.8931 363.41845 419.7931 Z" fill="#80ffff"/>
      </g>
      <g id="Graphic_181">
        <path d="M 97.31845 422.9931 C 95.81845 424.8931 94.81845 426.6931 95.01845 426.9931 C 95.31845 427.1931 101.51845 431.9931 108.91845 437.4931 L 122.31845 447.4931 L 125.11845 444.1931 C 126.61845 442.3931 127.71845 440.4931 127.51845 439.8931 C 127.21845 438.8931 101.81845 419.4931 100.71845 419.3931 C 100.31845 419.3931 98.81845 420.9931 97.31845 422.9931 Z" fill="#ffffc0"/>
      </g>
      <g id="Graphic_180">
        <path d="M 162.11845 427.3931 C 160.81845 428.8931 159.81845 430.6931 159.81845 431.2931 C 159.81845 431.8931 165.91845 436.9931 173.41845 442.5931 L 187.01845 452.7931 L 188.91845 450.2931 C 193.41845 444.6931 193.71845 445.2931 179.31845 434.4931 C 171.91845 428.8931 165.51845 424.3931 165.11845 424.4931 C 164.61845 424.4931 163.31845 425.7931 162.11845 427.3931 Z" fill="#80ff80"/>
      </g>
      <g id="Graphic_179">
        <path d="M 613.41845 427.6931 C 611.91845 429.5931 610.81845 431.2931 610.81845 431.5931 C 610.81845 431.8931 616.91845 436.7931 624.51845 442.3931 L 638.11845 452.6931 L 640.91845 449.2931 C 642.51845 447.3931 643.81845 445.5931 643.81845 445.1931 C 643.81845 444.3931 617.61845 424.3931 616.51845 424.3931 C 616.21845 424.3931 614.81845 425.8931 613.41845 427.6931 Z" fill="#ffffc0"/>
      </g>
      <g id="Graphic_178">
        <path d="M 470.01845 441.9931 C 464.91845 448.8931 460.51845 455.0931 460.21845 455.7931 C 459.71845 457.1931 466.41845 463.0931 467.31845 462.1931 C 467.61845 461.8931 472.41845 455.6931 477.91845 448.2931 L 487.91845 434.8931 L 484.71845 432.0931 C 482.91845 430.5931 480.91845 429.3931 480.31845 429.3931 C 479.81845 429.4931 475.11845 435.0931 470.01845 441.9931 Z" fill="#80ffff"/>
      </g>
      <g id="Graphic_177">
        <path d="M 406.21845 446.0931 L 404.21845 446.4931 L 406.51845 462.6931 C 407.81845 471.5931 409.01845 479.3931 409.21845 479.9931 C 409.61845 481.0931 417.11845 480.3931 418.41845 479.1931 C 418.81845 478.7931 415.41845 452.9931 414.31845 447.5931 C 413.81845 445.3931 411.71845 444.9931 406.21845 446.0931 Z" fill="#ff80ff"/>
      </g>
      <g id="Graphic_176">
        <path d="M 593.31845 458.2931 C 589.81845 458.9931 589.91845 457.4931 592.91845 478.1931 C 593.91845 485.4931 594.81845 491.9931 594.81845 492.4931 C 594.81845 493.2931 603.51845 492.7931 604.61845 491.8931 C 604.81845 491.6931 601.61845 468.1931 600.31845 460.5931 C 599.71845 457.1931 599.11845 456.9931 593.31845 458.2931 Z" fill="#ff80ff"/>
      </g>
      <g id="Graphic_175">
        <path d="M 543.91845 477.4931 C 538.21845 485.1931 533.71845 491.5931 533.91845 491.7931 C 534.11845 491.8931 535.91845 493.1931 537.91845 494.6931 L 541.41845 497.2931 L 550.91845 484.6931 C 563.11845 468.3931 562.51845 469.4931 559.71845 467.1931 C 554.51845 463.0931 554.91845 462.7931 543.91845 477.4931 Z" fill="#ffffc0"/>
      </g>
      <g id="Graphic_174">
        <path d="M 640.61845 479.9931 L 630.41845 493.6931 L 633.81845 496.4931 C 635.71845 498.0931 637.51845 499.3931 637.91845 499.3931 C 638.31845 499.3931 643.21845 493.2931 648.81845 485.6931 L 659.11845 472.0931 L 655.71845 469.2931 C 653.81845 467.6931 652.01845 466.3931 651.61845 466.3931 C 651.21845 466.3931 646.21845 472.4931 640.61845 479.9931 Z" fill="#ff80ff"/>
      </g>
      <g id="Graphic_173">
        <path d="M 496.61845 478.0931 C 493.21845 478.5931 493.21845 478.0931 496.21845 497.8931 L 498.41845 512.8931 L 502.81845 512.5931 C 505.31845 512.3931 507.51845 511.9931 507.71845 511.7931 C 507.91845 511.5931 507.01845 503.7931 505.71845 494.3931 C 503.21845 475.6931 503.91845 476.9931 496.61845 478.0931 Z" fill="#80ff80"/>
      </g>
    </g>
  </g>
</svg>
