<?xml version="1.0" encoding="UTF-8" standalone="no"?>
<!DOCTYPE svg PUBLIC "-//W3C//DTD SVG 1.1//EN" "http://www.w3.org/Graphics/SVG/1.1/DTD/svg11.dtd">
<svg xmlns:xl="http://www.w3.org/1999/xlink" version="1.1" xmlns:dc="http://purl.org/dc/elements/1.1/" xmlns="http://www.w3.org/2000/svg" viewBox="-7733 -2780 2190 3888" width="2190" height="3888">
  <defs/>
  <g id="版面___2" stroke-opacity="1" fill="none" fill-opacity="1" stroke="none" stroke-dasharray="none">
    <title>版面 2</title>
    <g id="版面___2_background">
      <title>background</title>
      <g id="Graphic_14">
        <rect x="-7732" y="-2778.75" width="2188" height="3885.5" fill="#fef3d2"/>
        <rect x="-7732" y="-2778.75" width="2188" height="3885.5" stroke="black" stroke-linecap="round" stroke-linejoin="round" stroke-width="1"/>
      </g>
    </g>
    <g id="版面___2_图层_1">
      <title>图层 1</title>
      <g id="Graphic_7"/>
      <g id="Group_2">
        <g id="Graphic_6">
          <path d="M -6671.09 -1169.2433 C -6810.69 -1160.2433 -6933.59 -1102.0433 -7006.79 -1010.3433 C -7046.79 -960.3433 -7069.49 -900.0433 -7070.29 -841.7433 C -7070.39 -829.9433 -7070.29 -829.5433 -7065.89 -816.2433 C -7046.19 -757.9433 -7018.79 -723.3433 -6985.59 -714.7433 C -6969.19 -710.5433 -6940.99 -714.2433 -6881.59 -728.6433 C -6847.79 -736.7433 -6836.99 -738.8433 -6820.39 -740.2433 C -6784.89 -743.1433 -6755.59 -734.8433 -6714.89 -710.1433 C -6671.29 -683.6433 -6616.09 -664.8433 -6558.59 -656.6433 C -6541.29 -654.2433 -6500.39 -653.6433 -6485.09 -655.6433 C -6451.09 -660.1433 -6427.69 -670.4433 -6409.99 -688.9433 C -6401.99 -697.2433 -6397.89 -703.1433 -6393.59 -712.5433 C -6387.99 -724.7433 -6386.49 -730.8433 -6374.09 -792.7433 C -6356.69 -878.9433 -6350.09 -904.9433 -6339.59 -926.9433 C -6333.99 -938.8433 -6328.09 -947.1433 -6319.79 -954.9433 C -6308.69 -965.2433 -6300.59 -968.2433 -6274.09 -971.6433 C -6262.89 -973.0433 -6253.59 -975.7433 -6249.69 -978.7433 C -6247.79 -980.1433 -6247.99 -980.6433 -6254.29 -989.9433 C -6277.89 -1025.4433 -6312.29 -1059.2433 -6352.09 -1086.4433 C -6417.99 -1131.3433 -6497.69 -1159.0433 -6586.09 -1167.7433 C -6604.89 -1169.6433 -6652.49 -1170.4433 -6671.09 -1169.2433 Z M -6675.09 -1162.8433 C -6675.09 -1162.6433 -6673.99 -1154.6433 -6672.59 -1145.1433 C -6669.79 -1126.0433 -6669.79 -1126.2433 -6676.29 -1126.2433 C -6680.69 -1126.2433 -6680.19 -1124.8433 -6683.09 -1145.6433 C -6684.29 -1153.8433 -6684.89 -1160.8433 -6684.39 -1161.3433 C -6683.69 -1161.9433 -6681.49 -1162.4433 -6676.29 -1163.1433 C -6675.69 -1163.1433 -6675.09 -1163.0433 -6675.09 -1162.8433 Z M -6563.59 -1138.1433 C -6556.19 -1132.5433 -6550.09 -1127.4433 -6550.09 -1126.8433 C -6550.09 -1126.1433 -6551.29 -1124.1433 -6552.79 -1122.3433 L -6555.59 -1119.1433 L -6569.09 -1129.2433 C -6576.49 -1134.8433 -6582.99 -1139.7433 -6583.49 -1140.2433 C -6584.49 -1141.2433 -6579.69 -1148.2433 -6577.99 -1148.2433 C -6577.49 -1148.2433 -6570.99 -1143.6433 -6563.59 -1138.1433 Z M -6620.09 -1138.2433 C -6615.89 -1134.7433 -6615.39 -1136.0433 -6628.79 -1118.4433 L -6638.19 -1106.1433 L -6642.19 -1109.3433 L -6646.09 -1112.4433 L -6643.39 -1116.1433 C -6629.69 -1134.5433 -6624.59 -1141.2433 -6624.09 -1141.2433 C -6623.79 -1141.2433 -6621.99 -1139.8433 -6620.09 -1138.2433 Z M -6735.19 -1109.6433 C -6734.79 -1109.2433 -6740.09 -1101.2433 -6740.79 -1101.2433 C -6741.59 -1101.2433 -6769.09 -1122.3433 -6769.09 -1122.9433 C -6769.09 -1123.3433 -6767.89 -1125.3433 -6766.49 -1127.3433 L -6763.89 -1131.1433 L -6749.69 -1120.5433 C -6741.99 -1114.7433 -6735.39 -1109.7433 -6735.19 -1109.6433 Z M -6783.09 -1123.0433 C -6783.09 -1122.3433 -6781.99 -1114.3433 -6780.59 -1105.2433 C -6779.29 -1096.2433 -6778.29 -1088.7433 -6778.39 -1088.6433 C -6778.49 -1088.5433 -6780.69 -1088.1433 -6783.29 -1087.7433 C -6787.69 -1087.0433 -6787.99 -1087.1433 -6788.49 -1089.3433 C -6789.19 -1092.4433 -6793.09 -1120.0433 -6793.09 -1121.7433 C -6793.09 -1123.9433 -6783.09 -1125.2433 -6783.09 -1123.0433 Z M -6691.59 -1111.7433 C -6684.99 -1106.9433 -6679.19 -1102.6433 -6678.69 -1102.1433 C -6678.19 -1101.7433 -6679.29 -1099.5433 -6680.99 -1097.3433 L -6684.19 -1093.2433 L -6698.39 -1103.9433 C -6706.19 -1109.7433 -6712.79 -1114.6433 -6712.99 -1114.8433 C -6713.19 -1115.0433 -6711.89 -1116.9433 -6710.09 -1119.2433 C -6707.29 -1122.8433 -6706.69 -1123.1433 -6705.19 -1121.9433 C -6704.29 -1121.2433 -6698.19 -1116.6433 -6691.59 -1111.7433 Z M -6481.69 -1111.5433 C -6480.29 -1104.1433 -6476.99 -1078.9433 -6477.49 -1078.5433 C -6478.39 -1077.5433 -6487.09 -1076.9433 -6487.09 -1077.8433 C -6487.09 -1078.3433 -6488.19 -1086.1433 -6489.59 -1095.2433 C -6490.89 -1104.3433 -6491.69 -1112.0433 -6491.29 -1112.4433 C -6490.69 -1113.0433 -6488.69 -1113.4433 -6483.39 -1114.1433 C -6482.79 -1114.1433 -6481.99 -1113.0433 -6481.69 -1111.5433 Z M -6851.89 -1104.6433 C -6849.69 -1103.1433 -6848.39 -1101.5433 -6848.79 -1100.8433 C -6850.69 -1097.8433 -6869.39 -1073.2433 -6869.89 -1073.2433 C -6871.59 -1073.2433 -6877.99 -1078.6433 -6877.39 -1079.6433 C -6875.49 -1082.6433 -6856.79 -1107.2433 -6856.29 -1107.2433 C -6855.99 -1107.2433 -6853.99 -1106.0433 -6851.89 -1104.6433 Z M -6521.79 -1101.8433 C -6520.29 -1100.7433 -6519.09 -1099.4433 -6519.09 -1099.0433 C -6519.09 -1098.5433 -6523.79 -1091.8433 -6529.59 -1084.1433 L -6540.19 -1070.1433 L -6544.09 -1072.9433 C -6546.29 -1074.4433 -6547.89 -1076.2433 -6547.59 -1076.9433 C -6546.39 -1080.3433 -6526.69 -1105.1433 -6525.69 -1104.5433 C -6525.09 -1104.1433 -6523.39 -1102.9433 -6521.79 -1101.8433 Z M -6582.09 -1084.3433 C -6580.89 -1075.9433 -6580.29 -1068.6433 -6580.79 -1068.2433 C -6581.59 -1067.5433 -6590.09 -1066.1433 -6590.09 -1066.7433 C -6590.09 -1066.9433 -6591.19 -1074.8433 -6592.59 -1084.3433 C -6593.99 -1093.8433 -6594.89 -1101.8433 -6594.59 -1102.0433 C -6594.29 -1102.3433 -6592.19 -1102.8433 -6589.79 -1103.2433 C -6584.59 -1103.9433 -6584.89 -1104.7433 -6582.09 -1084.3433 Z M -6619.19 -1078.6433 C -6618.99 -1078.4433 -6620.09 -1076.6433 -6621.59 -1074.5433 C -6623.19 -1072.4433 -6624.59 -1070.6433 -6624.69 -1070.4433 C -6624.79 -1070.2433 -6631.49 -1075.0433 -6639.49 -1081.0433 L -6653.99 -1091.9433 L -6650.99 -1096.0433 L -6647.99 -1100.2433 L -6633.79 -1089.5433 C -6625.99 -1083.7433 -6619.39 -1078.7433 -6619.19 -1078.6433 Z M -6421.99 -1089.5433 C -6419.89 -1087.9433 -6418.09 -1086.5433 -6418.09 -1086.2433 C -6418.09 -1085.9433 -6422.99 -1079.3433 -6428.99 -1071.5433 L -6439.79 -1057.3433 L -6443.89 -1060.3433 L -6447.99 -1063.3433 L -6437.29 -1077.7433 C -6431.39 -1085.6433 -6426.39 -1092.1433 -6426.29 -1092.2433 C -6426.09 -1092.2433 -6424.19 -1091.0433 -6421.99 -1089.5433 Z M -6720.19 -1081.3433 L -6716.69 -1078.4433 L -6727.19 -1064.4433 C -6732.89 -1056.6433 -6738.09 -1050.3433 -6738.59 -1050.2433 C -6739.19 -1050.2433 -6741.19 -1051.5433 -6743.09 -1053.1433 L -6746.49 -1055.9433 L -6736.09 -1070.0433 C -6730.29 -1077.8433 -6725.09 -1084.1433 -6724.59 -1084.1433 C -6723.99 -1084.1433 -6721.99 -1082.9433 -6720.19 -1081.3433 Z M -6764.49 -1076.5433 C -6762.59 -1075.1433 -6761.19 -1073.3433 -6761.49 -1072.6433 C -6761.79 -1071.9433 -6766.59 -1065.2433 -6772.19 -1057.8433 L -6782.29 -1044.2433 L -6786.19 -1047.3433 C -6788.39 -1049.0433 -6790.09 -1050.6433 -6790.09 -1050.8433 C -6790.09 -1051.6433 -6769.09 -1079.2433 -6768.49 -1079.2433 C -6768.19 -1079.2433 -6766.39 -1078.0433 -6764.49 -1076.5433 Z M -6898.69 -1072.5433 C -6897.59 -1067.0433 -6893.99 -1040.0433 -6894.29 -1039.7433 C -6894.49 -1039.6433 -6896.69 -1039.1433 -6899.29 -1038.8433 L -6903.99 -1038.1433 L -6904.59 -1041.4433 C -6905.39 -1046.2433 -6909.09 -1072.2433 -6909.09 -1073.2433 C -6909.09 -1074.1433 -6906.29 -1074.8433 -6901.89 -1075.1433 C -6899.79 -1075.2433 -6899.19 -1074.7433 -6898.69 -1072.5433 Z M -6827.09 -1044.7433 C -6825.79 -1035.1433 -6824.89 -1027.1433 -6825.19 -1026.8433 C -6825.39 -1026.6433 -6827.59 -1026.2433 -6830.09 -1025.8433 L -6834.69 -1025.1433 L -6837.19 -1043.1433 L -6839.69 -1061.1433 L -6837.59 -1061.5433 C -6836.49 -1061.7433 -6834.19 -1062.0433 -6832.49 -1062.1433 L -6829.49 -1062.2433 Z M -6496.19 -1050.2433 C -6491.69 -1038.5433 -6490.09 -1029.7433 -6490.09 -1015.9433 C -6490.09 -996.4433 -6494.19 -979.8433 -6503.99 -960.5433 C -6520.49 -927.5433 -6545.79 -904.2433 -6586.59 -884.2433 C -6612.09 -871.7433 -6638.09 -863.6433 -6667.59 -859.0433 C -6684.39 -856.4433 -6720.49 -855.4433 -6736.39 -857.2433 C -6765.59 -860.3433 -6797.19 -869.0433 -6811.99 -878.0433 C -6859.09 -906.6433 -6886.79 -944.1433 -6887.39 -980.2433 C -6887.59 -990.3433 -6886.49 -999.6433 -6885.19 -998.7433 C -6884.69 -998.5433 -6884.09 -995.6433 -6883.69 -992.3433 C -6880.89 -967.9433 -6864.99 -940.8433 -6843.99 -924.6433 C -6838.29 -920.2433 -6822.39 -910.2433 -6821.09 -910.2433 C -6820.69 -910.2433 -6821.29 -912.8433 -6822.39 -916.0433 C -6826.79 -929.0433 -6825.39 -949.9433 -6818.99 -967.5433 C -6811.69 -987.8433 -6798.49 -1003.1433 -6775.09 -1018.2433 C -6766.69 -1023.6433 -6746.89 -1033.3433 -6736.09 -1037.2433 C -6687.59 -1055.0433 -6627.79 -1054.9433 -6585.69 -1037.1433 C -6570.69 -1030.7433 -6554.69 -1017.5433 -6546.39 -1004.5433 C -6539.79 -994.1433 -6535.59 -981.5433 -6533.29 -965.2433 L -6532.59 -959.7433 L -6527.09 -968.2433 C -6510.49 -994.1433 -6501.09 -1022.0433 -6500.79 -1046.9433 C -6500.69 -1053.1433 -6500.29 -1058.2433 -6499.89 -1058.2433 C -6499.59 -1058.2433 -6497.89 -1054.6433 -6496.19 -1050.2433 Z M -6537.29 -1044.9433 C -6530.09 -1039.4433 -6524.09 -1034.7433 -6524.09 -1034.4433 C -6524.09 -1034.1433 -6525.29 -1032.1433 -6526.69 -1030.0433 L -6529.39 -1026.2433 L -6532.49 -1028.5433 C -6534.19 -1029.8433 -6540.49 -1034.6433 -6546.59 -1039.1433 C -6552.59 -1043.6433 -6557.69 -1047.7433 -6557.89 -1048.2433 C -6558.49 -1049.8433 -6552.99 -1056.2433 -6551.69 -1055.5433 C -6551.09 -1055.1433 -6544.59 -1050.3433 -6537.29 -1044.9433 Z M -6378.89 -1036.5433 C -6376.19 -1017.3433 -6375.89 -1018.6433 -6383.09 -1018.0433 L -6386.59 -1017.7433 L -6388.79 -1032.7433 C -6390.09 -1041.0433 -6390.99 -1049.1433 -6390.79 -1050.7433 C -6390.59 -1053.4433 -6390.19 -1053.8433 -6386.59 -1054.2433 C -6384.39 -1054.5433 -6382.29 -1054.5433 -6381.99 -1054.2433 C -6381.59 -1053.9433 -6380.19 -1045.9433 -6378.89 -1036.5433 Z M -6321.59 -1035.1433 C -6314.19 -1029.5433 -6308.09 -1024.4433 -6308.09 -1023.8433 C -6308.09 -1023.1433 -6309.29 -1021.1433 -6310.79 -1019.3433 L -6313.59 -1016.1433 L -6327.09 -1026.2433 C -6334.49 -1031.8433 -6340.99 -1036.7433 -6341.49 -1037.2433 C -6342.39 -1038.1433 -6337.49 -1045.2433 -6335.99 -1045.2433 C -6335.49 -1045.2433 -6328.99 -1040.6433 -6321.59 -1035.1433 Z M -6958.09 -1020.0433 C -6958.09 -1019.3433 -6956.99 -1011.3433 -6955.59 -1002.2433 C -6954.29 -993.2433 -6953.29 -985.6433 -6953.49 -985.5433 C -6953.59 -985.3433 -6955.89 -985.1433 -6958.59 -985.0433 L -6963.49 -984.7433 L -6965.69 -999.7433 C -6968.59 -1019.3433 -6968.59 -1020.0433 -6965.79 -1020.5433 C -6961.19 -1021.4433 -6958.09 -1021.2433 -6958.09 -1020.0433 Z M -6849.29 -1007.3433 C -6843.19 -1002.7433 -6838.09 -998.7433 -6838.09 -998.4433 C -6838.09 -998.0433 -6839.39 -996.0433 -6840.99 -994.0433 L -6843.79 -990.2433 L -6857.99 -1000.8433 C -6865.69 -1006.7433 -6872.09 -1011.9433 -6872.09 -1012.4433 C -6872.09 -1012.9433 -6870.89 -1014.9433 -6869.49 -1016.8433 L -6866.79 -1020.2433 L -6863.69 -1017.9433 C -6861.99 -1016.6433 -6855.49 -1011.8433 -6849.29 -1007.3433 Z M -6438.09 -1012.5433 C -6438.09 -1012.0433 -6436.99 -1004.3433 -6435.59 -995.2433 C -6434.29 -986.1433 -6433.49 -978.4433 -6433.89 -978.1433 C -6434.29 -977.7433 -6436.49 -977.2433 -6438.79 -976.8433 C -6443.69 -976.1433 -6442.99 -974.2433 -6446.09 -996.6433 C -6447.89 -1008.8433 -6447.99 -1011.6433 -6446.89 -1012.3433 C -6445.29 -1013.4433 -6438.09 -1013.5433 -6438.09 -1012.5433 Z M -6350.19 -1004.5433 C -6348.19 -1003.1433 -6346.39 -1001.7433 -6346.19 -1001.6433 C -6345.39 -1001.0433 -6366.59 -973.3433 -6367.89 -973.2433 C -6369.49 -973.2433 -6375.09 -977.3433 -6375.09 -978.5433 C -6375.09 -979.5433 -6354.89 -1007.1433 -6354.19 -1007.2433 C -6353.99 -1007.2433 -6352.19 -1006.0433 -6350.19 -1004.5433 Z M -6990.39 -988.4433 L -6987.19 -985.7433 L -6997.59 -971.8433 C -7003.39 -964.1433 -7008.29 -957.7433 -7008.49 -957.4433 C -7008.79 -957.2433 -7010.79 -958.3433 -7012.99 -959.9433 L -7017.09 -962.9433 L -7006.49 -977.0433 C -7000.59 -984.8433 -6995.39 -991.2433 -6994.69 -991.2433 C -6994.09 -991.2433 -6992.19 -989.9433 -6990.39 -988.4433 Z M -6924.49 -968.6433 C -6922.59 -967.1433 -6921.09 -965.5433 -6921.09 -964.9433 C -6921.09 -963.8433 -6941.29 -936.3433 -6942.09 -936.3433 C -6942.39 -936.2433 -6944.29 -937.7433 -6946.29 -939.5433 L -6950.09 -942.7433 L -6939.39 -957.0433 C -6933.49 -964.8433 -6928.49 -971.2433 -6928.29 -971.2433 C -6928.09 -971.2433 -6926.39 -970.0433 -6924.49 -968.6433 Z M -6424.49 -955.5433 C -6422.59 -954.1433 -6421.19 -952.3433 -6421.49 -951.6433 C -6421.79 -950.9433 -6426.59 -944.2433 -6432.19 -936.8433 L -6442.29 -923.2433 L -6446.19 -926.3433 C -6448.39 -928.0433 -6450.09 -929.6433 -6450.09 -929.8433 C -6450.09 -930.6433 -6429.09 -958.2433 -6428.49 -958.2433 C -6428.19 -958.2433 -6426.39 -957.0433 -6424.49 -955.5433 Z M -6382.69 -934.1433 C -6374.39 -927.9433 -6369.39 -923.5433 -6369.79 -922.8433 C -6372.19 -918.8433 -6374.69 -916.2433 -6375.79 -916.6433 C -6376.39 -916.9433 -6383.09 -921.7433 -6390.49 -927.3433 L -6404.09 -937.4433 L -6401.29 -941.3433 C -6399.79 -943.4433 -6398.09 -945.0433 -6397.39 -944.7433 C -6396.69 -944.5433 -6390.09 -939.7433 -6382.69 -934.1433 Z M -6899.09 -943.8433 C -6899.09 -943.6433 -6897.99 -935.7433 -6896.59 -926.2433 C -6895.19 -916.7433 -6894.09 -908.9433 -6894.09 -908.7433 C -6894.09 -908.1433 -6903.19 -906.9433 -6903.69 -907.5433 C -6904.19 -908.0433 -6909.09 -938.4433 -6909.09 -941.4433 C -6909.09 -942.5433 -6908.09 -943.2433 -6905.79 -943.5433 C -6900.39 -944.2433 -6899.09 -944.2433 -6899.09 -943.8433 Z M -6994.59 -912.0433 C -6993.19 -903.1433 -6992.09 -895.0433 -6992.09 -894.1433 C -6992.09 -892.9433 -6993.29 -892.3433 -6996.79 -891.9433 C -6999.49 -891.6433 -7001.69 -891.5433 -7001.79 -891.6433 C -7002.39 -892.2433 -7007.09 -926.6433 -7006.59 -927.0433 C -7005.99 -927.6433 -6997.79 -929.0433 -6997.29 -928.6433 C -6997.09 -928.5433 -6995.89 -921.0433 -6994.59 -912.0433 Z M -6476.79 -897.7433 C -6475.39 -888.4433 -6474.49 -880.5433 -6474.69 -880.3433 C -6475.69 -879.2433 -6484.29 -878.6433 -6484.59 -879.6433 C -6485.59 -882.9433 -6489.19 -912.4433 -6488.79 -913.6433 C -6488.19 -915.0433 -6481.29 -916.3433 -6479.89 -915.2433 C -6479.59 -914.9433 -6478.09 -907.1433 -6476.79 -897.7433 Z M -6933.99 -895.6433 L -6919.99 -885.1433 L -6923.19 -881.1433 C -6925.19 -878.5433 -6926.69 -877.4433 -6927.49 -878.0433 C -6928.09 -878.5433 -6934.19 -883.1433 -6941.09 -888.2433 C -6947.99 -893.3433 -6953.99 -897.8433 -6954.49 -898.3433 C -6955.39 -899.1433 -6950.49 -906.2433 -6948.89 -906.2433 C -6948.39 -906.2433 -6941.69 -901.4433 -6933.99 -895.6433 Z M -6414.59 -897.0433 C -6413.79 -892.3433 -6410.09 -866.2433 -6410.09 -865.3433 C -6410.09 -864.3433 -6418.99 -862.8433 -6419.79 -863.5433 C -6420.19 -864.0433 -6424.99 -895.1433 -6425.09 -897.9433 C -6425.09 -899.0433 -6422.59 -899.7433 -6417.39 -900.1433 C -6415.59 -900.2433 -6415.09 -899.5433 -6414.59 -897.0433 Z M -7029.99 -868.0433 C -7022.39 -862.3433 -7016.19 -857.2433 -7016.09 -856.7433 C -7016.09 -856.1433 -7017.39 -854.1433 -7018.89 -852.2433 L -7021.69 -848.9433 L -7035.89 -859.6433 C -7043.69 -865.4433 -7050.09 -870.5433 -7050.09 -870.8433 C -7050.09 -871.6433 -7044.99 -878.2433 -7044.29 -878.2433 C -7043.99 -878.2433 -7037.59 -873.6433 -7029.99 -868.0433 Z M -6541.09 -873.5433 C -6541.09 -873.0433 -6539.99 -865.3433 -6538.59 -856.2433 C -6537.29 -847.1433 -6536.49 -839.4433 -6536.89 -839.1433 C -6537.29 -838.7433 -6539.49 -838.2433 -6541.79 -837.8433 C -6546.69 -837.1433 -6545.89 -835.1433 -6549.19 -857.5433 C -6551.09 -870.1433 -6551.19 -872.5433 -6549.99 -873.3433 C -6548.29 -874.4433 -6541.09 -874.5433 -6541.09 -873.5433 Z M -6863.09 -851.5433 C -6861.79 -842.0433 -6860.89 -834.1433 -6861.09 -833.9433 C -6861.39 -833.6433 -6863.69 -833.2433 -6866.19 -832.8433 L -6870.79 -832.1433 L -6872.99 -848.4433 C -6874.19 -857.4433 -6875.49 -865.5433 -6875.69 -866.4433 C -6876.19 -868.2433 -6873.79 -869.1433 -6868.59 -868.8433 L -6865.59 -868.7433 Z M -6952.49 -865.5433 C -6950.59 -864.1433 -6949.19 -862.3433 -6949.49 -861.6433 C -6949.79 -860.9433 -6954.59 -854.2433 -6960.19 -846.8433 L -6970.29 -833.2433 L -6974.19 -836.3433 C -6976.49 -838.1433 -6977.79 -839.9433 -6977.39 -840.5433 C -6975.79 -843.2433 -6956.79 -868.2433 -6956.39 -868.2433 C -6956.19 -868.2433 -6954.39 -867.0433 -6952.49 -865.5433 Z M -6576.09 -857.3433 L -6572.69 -854.5433 L -6583.09 -840.4433 C -6588.89 -832.6433 -6593.99 -826.3433 -6594.59 -826.3433 C -6595.09 -826.3433 -6597.09 -827.5433 -6598.99 -829.1433 L -6602.39 -831.9433 L -6591.69 -846.0433 C -6585.79 -853.8433 -6580.69 -860.2433 -6580.29 -860.2433 C -6579.89 -860.2433 -6577.99 -858.9433 -6576.09 -857.3433 Z M -6807.89 -849.6433 C -6805.39 -847.9433 -6804.39 -846.5433 -6804.89 -845.8433 C -6805.39 -845.2433 -6809.99 -839.1433 -6815.09 -832.2433 C -6820.19 -825.3433 -6824.79 -819.3433 -6825.19 -818.8433 C -6825.89 -818.0433 -6834.09 -822.7433 -6834.09 -823.9433 C -6834.09 -824.7433 -6812.99 -852.2433 -6812.39 -852.2433 C -6811.99 -852.2433 -6809.99 -851.0433 -6807.89 -849.6433 Z M -6418.99 -836.7433 L -6404.99 -826.1433 L -6407.79 -822.2433 C -6409.29 -820.0433 -6411.09 -818.4433 -6411.79 -818.7433 C -6415.19 -819.9433 -6439.99 -839.6433 -6439.39 -840.6433 C -6437.49 -843.7433 -6434.59 -847.2433 -6433.89 -847.2433 C -6433.39 -847.2433 -6426.69 -842.5433 -6418.99 -836.7433 Z M -6723.69 -835.5433 C -6722.59 -830.0433 -6718.99 -803.0433 -6719.29 -802.7433 C -6719.49 -802.6433 -6721.69 -802.2433 -6724.29 -801.9433 C -6728.99 -801.3433 -6728.99 -801.3433 -6729.59 -804.5433 C -6730.39 -809.2433 -6734.09 -835.2433 -6734.09 -836.2433 C -6734.09 -837.2433 -6731.69 -837.9433 -6727.39 -838.1433 C -6724.69 -838.2433 -6724.19 -837.8433 -6723.69 -835.5433 Z M -6483.19 -831.5433 L -6479.99 -828.7433 L -6490.09 -815.2433 C -6495.69 -807.8433 -6500.59 -801.3433 -6501.09 -800.8433 C -6502.19 -799.7433 -6509.29 -805.2433 -6508.69 -806.8433 C -6507.69 -809.4433 -6488.59 -834.2433 -6487.59 -834.2433 C -6486.99 -834.2433 -6484.99 -833.0433 -6483.19 -831.5433 Z M -7017.19 -829.5433 C -7015.19 -828.1433 -7013.39 -826.7433 -7013.19 -826.6433 C -7012.89 -826.3433 -7031.29 -801.0433 -7033.99 -798.0433 C -7034.79 -797.1433 -7042.09 -802.1433 -7042.09 -803.5433 C -7042.09 -804.5433 -7021.99 -832.1433 -7021.19 -832.2433 C -7020.99 -832.2433 -7019.19 -831.0433 -7017.19 -829.5433 Z M -6919.89 -813.5433 C -6918.49 -803.7433 -6917.49 -795.5433 -6917.69 -795.3433 C -6917.89 -795.1433 -6920.09 -794.6433 -6922.59 -794.2433 C -6926.69 -793.6433 -6927.19 -793.7433 -6927.59 -795.6433 C -6928.99 -801.8433 -6932.19 -827.6433 -6931.69 -828.7433 C -6931.39 -829.5433 -6929.49 -830.3433 -6927.39 -830.5433 C -6925.29 -830.7433 -6923.29 -830.9433 -6922.99 -831.0433 C -6922.69 -831.1433 -6921.29 -823.2433 -6919.89 -813.5433 Z M -6618.59 -830.0433 C -6618.39 -829.3433 -6617.09 -821.3433 -6615.79 -812.2433 C -6613.99 -800.2433 -6613.69 -795.5433 -6614.49 -795.0433 C -6615.09 -794.6433 -6617.39 -794.2433 -6619.69 -794.2433 L -6623.69 -794.2433 L -6625.99 -811.3433 C -6627.39 -821.3433 -6627.99 -828.7433 -6627.49 -829.2433 C -6626.99 -829.7433 -6625.19 -830.2433 -6623.59 -830.5433 C -6621.89 -830.7433 -6620.19 -831.0433 -6619.79 -831.1433 C -6619.39 -831.1433 -6618.79 -830.6433 -6618.59 -830.0433 Z M -6984.09 -822.8433 C -6984.09 -822.6433 -6982.99 -814.7433 -6981.59 -805.2433 C -6980.19 -795.7433 -6979.09 -787.9433 -6979.09 -787.7433 C -6979.09 -787.1433 -6988.19 -785.9433 -6988.69 -786.5433 C -6989.19 -786.9433 -6994.09 -818.3433 -6994.09 -820.9433 C -6994.09 -821.9433 -6991.99 -822.5433 -6985.79 -823.0433 C -6984.89 -823.1433 -6984.09 -823.0433 -6984.09 -822.8433 Z M -6666.49 -808.5433 L -6652.19 -797.8433 L -6654.89 -794.0433 C -6656.39 -792.0433 -6657.99 -790.2433 -6658.49 -790.2433 C -6659.19 -790.2433 -6682.59 -807.1433 -6686.99 -810.8433 C -6687.49 -811.2433 -6682.09 -819.2433 -6681.29 -819.2433 C -6680.99 -819.2433 -6674.39 -814.4433 -6666.49 -808.5433 Z M -6432.69 -802.5433 C -6431.29 -795.1433 -6427.99 -769.9433 -6428.49 -769.5433 C -6428.79 -769.2433 -6430.99 -768.7433 -6433.49 -768.5433 C -6437.89 -768.0433 -6437.99 -768.0433 -6438.49 -771.3433 C -6439.39 -776.2433 -6443.09 -802.1433 -6443.09 -803.2433 C -6443.09 -804.0433 -6440.89 -804.5433 -6434.89 -805.0433 C -6433.79 -805.1433 -6433.09 -804.2433 -6432.69 -802.5433 Z M -6796.19 -782.3433 C -6794.09 -767.6433 -6793.99 -764.9433 -6795.19 -764.1433 C -6797.09 -762.9433 -6804.09 -762.9433 -6804.09 -764.1433 C -6804.09 -764.7433 -6804.99 -771.1433 -6805.99 -778.4433 C -6809.19 -800.1433 -6809.29 -798.6433 -6804.59 -799.3433 C -6802.39 -799.6433 -6800.09 -799.8433 -6799.59 -799.7433 C -6798.99 -799.6433 -6797.49 -791.8433 -6796.19 -782.3433 Z M -6864.29 -779.9433 C -6857.09 -774.4433 -6851.09 -769.7433 -6851.09 -769.4433 C -6851.09 -767.7433 -6856.49 -761.3433 -6857.49 -761.9433 C -6860.49 -763.8433 -6885.09 -782.5433 -6885.09 -783.0433 C -6885.09 -784.7433 -6879.69 -791.1433 -6878.69 -790.5433 C -6878.09 -790.1433 -6871.59 -785.3433 -6864.29 -779.9433 Z M -6546.09 -783.0433 C -6546.09 -782.3433 -6544.99 -774.5433 -6543.69 -765.7433 C -6542.39 -756.9433 -6541.59 -749.4433 -6541.99 -749.0433 C -6542.29 -748.7433 -6544.59 -748.2433 -6547.09 -748.0433 L -6551.49 -747.7433 L -6553.69 -762.7433 C -6556.49 -781.5433 -6556.59 -782.9433 -6554.29 -783.5433 C -6550.59 -784.5433 -6546.09 -784.2433 -6546.09 -783.0433 Z M -6714.79 -779.8433 C -6713.29 -778.7433 -6712.29 -777.2433 -6712.49 -776.5433 C -6712.79 -775.9433 -6717.59 -769.2433 -6723.19 -761.8433 L -6733.29 -748.2433 L -6737.19 -751.0433 C -6739.29 -752.5433 -6741.09 -754.1433 -6741.09 -754.5433 C -6741.09 -754.9433 -6736.39 -761.6433 -6730.59 -769.3433 C -6723.69 -778.3433 -6719.59 -783.0433 -6718.79 -782.5433 C -6718.09 -782.1433 -6716.39 -780.9433 -6714.79 -779.8433 Z M -6988.49 -759.5433 L -6974.19 -748.8433 L -6976.89 -745.0433 C -6978.39 -743.0433 -6979.99 -741.2433 -6980.39 -741.2433 C -6980.79 -741.2433 -6987.49 -745.9433 -6995.19 -751.7433 C -7004.19 -758.6433 -7008.89 -762.7433 -7008.39 -763.5433 C -7006.99 -766.0433 -7003.69 -770.2433 -7003.29 -770.2433 C -7002.99 -770.2433 -6996.39 -765.4433 -6988.49 -759.5433 Z M -6921.49 -754.5433 L -6907.19 -743.8433 L -6910.29 -739.6433 L -6913.29 -735.3433 L -6927.49 -745.9433 C -6935.19 -751.7433 -6941.79 -756.7433 -6941.99 -756.8433 C -6942.49 -757.2433 -6937.09 -765.2433 -6936.29 -765.2433 C -6935.99 -765.2433 -6929.39 -760.4433 -6921.49 -754.5433 Z M -6453.09 -754.7433 C -6445.39 -748.9433 -6439.09 -743.9433 -6439.09 -743.5433 C -6439.09 -742.5433 -6444.09 -736.2433 -6444.99 -736.2433 C -6446.09 -736.2433 -6472.49 -756.1433 -6472.89 -757.2433 C -6473.19 -758.1433 -6468.29 -765.2433 -6467.39 -765.2433 C -6467.19 -765.2433 -6460.69 -760.5433 -6453.09 -754.7433 Z M -6601.19 -754.6433 C -6600.89 -754.3433 -6619.29 -729.0433 -6621.99 -726.0433 C -6622.79 -725.1433 -6630.09 -730.1433 -6630.09 -731.4433 C -6630.09 -731.9433 -6625.29 -738.6433 -6619.49 -746.3433 L -6608.99 -760.3433 L -6605.29 -757.6433 C -6603.29 -756.1433 -6601.39 -754.7433 -6601.19 -754.6433 Z M -6675.39 -727.7433 C -6672.29 -706.4433 -6672.19 -707.6433 -6677.69 -706.7433 C -6680.19 -706.4433 -6682.39 -706.2433 -6682.59 -706.4433 C -6682.79 -706.6433 -6683.89 -713.5433 -6684.99 -721.7433 C -6686.19 -730.0433 -6687.39 -737.9433 -6687.69 -739.4433 C -6688.19 -741.7433 -6687.89 -742.1433 -6685.39 -742.5433 C -6677.49 -743.7433 -6677.89 -744.3433 -6675.39 -727.7433 Z M -6482.09 -712.7433 C -6480.79 -703.1433 -6479.89 -695.0433 -6480.19 -694.8433 C -6480.39 -694.6433 -6482.69 -694.1433 -6485.19 -693.7433 L -6489.79 -693.0433 L -6491.99 -709.4433 C -6493.19 -718.3433 -6494.49 -726.5433 -6494.69 -727.4433 C -6495.19 -729.1433 -6493.39 -729.8433 -6487.49 -730.1433 L -6484.49 -730.2433 Z M -6524.09 -717.9433 C -6524.09 -717.5433 -6528.79 -710.8433 -6534.59 -703.1433 C -6541.49 -694.1433 -6545.59 -689.4433 -6546.39 -689.9433 C -6550.49 -692.3433 -6553.09 -694.8433 -6552.69 -695.9433 C -6552.39 -696.5433 -6547.59 -703.2433 -6541.99 -710.6433 L -6531.89 -724.2433 L -6527.99 -721.4433 C -6525.89 -719.9433 -6524.09 -718.3433 -6524.09 -717.9433 Z M -6426.89 -718.3433 L -6423.09 -715.5433 L -6433.69 -701.3433 C -6439.59 -693.6433 -6444.79 -687.2433 -6445.49 -687.2433 C -6446.09 -687.2433 -6447.99 -688.5433 -6449.79 -690.0433 L -6452.99 -692.7433 L -6442.29 -707.0433 C -6436.49 -714.8433 -6431.39 -721.2433 -6431.09 -721.2433 C -6430.79 -721.2433 -6428.89 -719.9433 -6426.89 -718.3433 Z M -6584.69 -707.5433 C -6582.79 -698.0433 -6580.09 -674.8433 -6580.79 -674.2433 C -6581.59 -673.5433 -6590.09 -672.1433 -6590.09 -672.7433 C -6590.09 -672.9433 -6591.19 -680.8433 -6592.59 -690.3433 C -6593.99 -699.8433 -6594.79 -707.9433 -6594.39 -708.3433 C -6593.89 -708.7433 -6591.99 -709.2433 -6590.09 -709.5433 C -6588.19 -709.7433 -6586.29 -710.0433 -6585.89 -710.0433 C -6585.59 -710.1433 -6584.99 -709.0433 -6584.69 -707.5433 Z" fill="#523820"/>
        </g>
        <g id="Graphic_5">
          <path d="M -6678.59 -1028.5433 C -6713.99 -1024.3433 -6742.19 -1014.5433 -6766.29 -998.0433 C -6787.39 -983.6433 -6802.59 -964.7433 -6808.69 -945.5433 C -6811.09 -937.9433 -6811.59 -922.1433 -6809.69 -912.3433 C -6808.79 -907.7433 -6808.09 -903.9433 -6808.09 -903.7433 C -6808.09 -903.1433 -6787.39 -894.0433 -6779.89 -891.3433 L -6771.09 -888.3433 L -6764.39 -893.4433 C -6736.39 -914.6433 -6700.59 -928.6433 -6662.59 -933.3433 C -6649.59 -934.9433 -6622.19 -934.9433 -6610.09 -933.3433 C -6598.29 -931.7433 -6585.69 -929.0433 -6575.69 -925.8433 L -6567.99 -923.4433 L -6560.79 -929.2433 C -6556.79 -932.4433 -6550.89 -937.7433 -6547.69 -941.0433 L -6541.79 -947.1433 L -6542.29 -955.4433 C -6544.69 -991.2433 -6581.19 -1019.9433 -6634.19 -1027.7433 C -6643.79 -1029.0433 -6669.89 -1029.6433 -6678.59 -1028.5433 Z" fill="#f0b95f"/>
        </g>
        <g id="Graphic_4">
          <path d="M -6659.09 -919.7433 C -6680.69 -917.2433 -6700.59 -912.7433 -6719.09 -906.0433 C -6733.49 -900.8433 -6759.69 -887.0433 -6758.59 -885.2433 C -6757.29 -883.1433 -6736.09 -881.7433 -6706.59 -881.7433 C -6680.79 -881.7433 -6674.09 -882.0433 -6666.59 -883.5433 C -6643.09 -888.2433 -6619.69 -895.3433 -6601.79 -903.1433 C -6591.39 -907.7433 -6578.59 -915.2433 -6578.59 -916.7433 C -6578.59 -920.1433 -6636.49 -922.3433 -6659.09 -919.7433 Z" fill="#f0b95f"/>
        </g>
        <g id="Graphic_3">
          <path d="M -6237.09 -953.2433 C -6244.69 -948.2433 -6260.79 -944.0433 -6278.19 -942.3433 C -6290.89 -941.1433 -6296.59 -938.5433 -6303.39 -931.2433 C -6317.99 -915.4433 -6325.19 -891.2433 -6346.09 -787.7433 C -6352.69 -754.7433 -6359.49 -723.4433 -6361.09 -718.2433 C -6367.19 -698.4433 -6376.69 -682.6433 -6391.09 -668.1433 C -6413.49 -645.5433 -6443.49 -632.4433 -6485.09 -627.1433 C -6499.09 -625.2433 -6535.69 -625.5433 -6552.79 -627.6433 C -6617.49 -635.3433 -6680.49 -656.1433 -6729.99 -686.1433 C -6748.79 -697.4433 -6756.29 -701.2433 -6768.99 -705.6433 C -6784.29 -711.0433 -6795.59 -712.6433 -6812.99 -711.9433 C -6830.09 -711.3433 -6840.79 -709.4433 -6874.09 -701.3433 C -6913.59 -691.6433 -6934.19 -687.6433 -6957.59 -685.1433 C -6986.59 -682.1433 -7011.29 -690.0433 -7034.59 -709.8433 L -7041.49 -715.6433 L -7036.69 -706.6433 C -7012.29 -661.3433 -6970.19 -616.6433 -6920.59 -583.5433 C -6833.09 -525.1433 -6718.79 -496.1433 -6604.09 -503.2433 C -6404.19 -515.6433 -6241.39 -632.1433 -6210.69 -784.8433 C -6206.89 -804.0433 -6205.69 -816.5433 -6205.69 -837.2433 C -6205.89 -875.5433 -6213.69 -911.3433 -6229.69 -946.1433 C -6233.39 -954.2433 -6234.29 -955.0433 -6237.09 -953.2433 Z" fill="#f0b95f"/>
        </g>
      </g>
    </g>
  </g>
</svg>
