<svg xmlns="http://www.w3.org/2000/svg" version="1.1" viewBox="26 69 366 196" width="366" height="196">
      <path d="M 33.58695 70.00358 C 33.3982 73.30132 30.5181 75.93234 27 75.93234 L 27 79.60286 C 30.64264 79.60286 33.6058 82.41669 33.6058 85.87572 C 33.6058 89.33476 30.64264 92.14859 27 92.14859 L 27 95.81911 C 30.64264 95.81911 33.6058 98.63294 33.6058 102.09198 C 33.6058 105.55101 30.64264 108.36126 27 108.36126 L 27 112.03178 C 30.64264 112.03178 33.6058 114.84561 33.6058 118.30465 C 33.6058 121.76368 30.64264 124.57751 27 124.57751 L 27 128.24803 C 29.3517 128.24803 31.4127 129.42375 32.5829 131.18373 C 51.20375 133.75382 65.5063 148.96641 65.5063 167.36203 C 65.5063 185.75766 50.8263 201.36096 31.85057 203.62636 C 30.64264 204.87018 28.9176 205.6552 27 205.6552 L 27 209.3257 C 30.64264 209.3257 33.6058 212.13954 33.6058 215.59857 C 33.6058 219.0576 30.64264 221.87144 27 221.87144 L 27 225.54196 C 30.64264 225.54196 33.6058 228.3558 33.6058 231.81483 C 33.6058 235.27386 30.64264 238.0877 27 238.0877 L 27 241.7582 C 30.64264 241.7582 33.6058 244.57204 33.6058 248.03108 C 33.6058 251.4901 30.64264 254.30394 27 254.30394 L 27 257.97447 C 30.55205 257.97447 33.45484 260.65567 33.5945 264 L 384.413 264 C 384.6018 260.70227 387.4819 258.07125 391 258.07125 L 391 254.40072 C 387.3574 254.40072 384.3942 251.5869 384.3942 248.12786 C 384.3942 244.66882 387.3574 241.855 391 241.855 L 391 238.18447 C 387.3574 238.18447 384.3942 235.37064 384.3942 231.9116 C 384.3942 228.45257 387.3574 225.63874 391 225.63874 L 391 221.96822 C 387.3574 221.96822 384.3942 219.1544 384.3942 215.69535 C 384.3942 212.23632 387.3574 209.4225 391 209.4225 L 391 205.75197 C 388.6483 205.75197 386.5873 204.57625 385.4171 202.81627 C 366.7962 200.24618 352.4937 185.0336 352.4937 166.63797 C 352.4937 148.24234 367.1737 132.63904 386.1494 130.37364 C 387.3574 129.12982 389.0824 128.34481 391 128.34481 L 391 124.67429 C 387.3574 124.67429 384.3942 121.86046 384.3942 118.40143 C 384.3942 114.94239 387.3574 112.12856 391 112.12856 L 391 108.45804 C 387.3574 108.45804 384.3942 105.64421 384.3942 102.18517 C 384.3942 98.72614 387.3574 95.91231 391 95.91231 L 391 92.24179 C 387.3574 92.24179 384.3942 89.42796 384.3942 85.96892 C 384.3942 82.509885 387.3574 79.69606 391 79.69606 L 391 76.025535 C 387.448 76.025535 384.5452 73.34433 384.4055 70 L 33.58695 70 Z" stroke="black" stroke-linecap="butt" stroke-linejoin="round" stroke-width=".25"/>
</svg>
